<svg width="207" height="202" viewBox="0 0 207 202" fill="none" xmlns="http://www.w3.org/2000/svg">
<g clip-path="url(#clip0_109_18)">
<path d="M126.12 2.82995C125.06 3.16995 124.33 4.33995 124.45 5.60995C124.7 8.20995 124.7 10.88 125.83 13.33C125.71 14.77 125.33 16.25 126.5 17.49C127.07 20.21 126.57 23.21 128.61 25.55C128.69 26.47 128.77 27.4 128.85 28.32C127.84 32.23 124.72 29.4 122.75 30.23C122.55 30.05 122.34 30.03 122.12 30.19C120.41 29.31 118.67 28.65 116.73 29.47C116.45 29.3 116.15 29.24 115.83 29.29C112.59 27.89 109.15 27.61 105.69 27.43C105.37 27.37 105.05 27.32 104.73 27.26C104.54 27.48 104.33 27.66 104.13 27.82C104.34 27.66 104.54 27.48 104.73 27.26C101.15 26.56 97.5602 25.85 93.9802 25.15C93.3802 20.75 90.5702 17.35 88.6902 13.52C87.3302 11.99 88.4502 9.06995 85.7902 8.25995C85.4102 7.28995 85.0402 6.31995 84.6602 5.34995C84.4302 3.16995 83.0302 1.63995 81.1002 1.40995C79.7302 1.23995 78.4302 2.47995 78.8102 4.36995C78.6502 5.56995 78.4602 6.76995 79.5802 7.66995C79.9202 8.21995 80.2602 8.77995 80.6002 9.32995C80.8302 13.73 82.5102 17.63 84.7602 21.32C82.9002 25.01 80.1002 22.05 77.7602 22.31C76.3902 20.89 74.9602 19.53 73.6602 18.04C71.4002 15.45 68.9902 13.86 65.6602 16.3C62.2202 17.93 58.7802 19.55 55.3402 21.18C54.5402 21.21 53.8302 21.4 53.4102 22.17C53.1302 22.04 52.9002 22.1 52.7202 22.36C45.7202 23.68 38.7102 25.01 31.7102 26.33C28.8202 25.14 25.8202 26.17 22.8802 26.05C16.4702 25.79 10.0302 26.18 3.60019 26.36C1.86019 26.41 0.200191 26.85 0.0201907 29.03C-0.0998093 30.48 0.410191 31.98 2.00019 31.96C8.06019 31.86 14.1702 33.14 20.1902 31.5L20.2102 31.47C22.4502 32.23 24.6902 32.78 26.9202 31.43C28.8702 32.15 30.7902 31.79 32.6902 31.22C33.3402 30.91 33.9902 30.61 34.6402 30.3C33.9902 30.61 33.3402 30.91 32.6802 31.22C39.3702 31.52 46.0502 31.83 52.7402 32.13C53.0002 32.29 53.2702 32.38 53.5802 32.4C56.4702 34.83 58.0902 38.99 62.6802 39.13C66.0402 42.22 69.7802 44.63 74.3402 45.54C76.3802 47.46 78.8202 48.4399 81.6002 48.5999C81.6302 47.8399 81.6602 47.08 81.7002 46.32C81.6702 47.08 81.6402 47.8399 81.6002 48.5999C82.7202 49.6199 83.9802 50.3299 85.5302 50.4199C86.4302 51.3199 87.5202 51.46 88.7102 51.24C89.7202 51.93 90.7202 52.62 91.7302 53.31C93.0302 55.51 93.3902 57.22 89.8502 56.75C89.0102 56.64 88.2802 56.76 87.6902 57.4C86.4202 57.33 85.1502 57.27 83.8802 57.2C82.4402 55.64 81.0902 56.95 79.7002 57.32C79.5002 57.12 79.2602 57.0499 78.9902 57.1199C76.8602 56.1899 74.7902 57.09 72.6902 57.29C72.0302 57.25 71.3802 57.22 70.7202 57.18C68.9602 56.22 67.2002 56.29 65.4202 57.13L65.0502 57.0999C64.5702 57.2299 64.0802 57.3499 63.6002 57.4799C64.0802 57.3599 64.5702 57.2299 65.0502 57.0999C60.2702 55.5599 55.3802 56.36 50.5302 56.43C49.4302 56.45 48.7702 57.16 48.6902 58.32C47.9502 61.45 49.1202 63.24 52.3802 63.56C55.6102 67.89 60.8902 68.77 65.3502 70.88C68.3102 72.28 69.0002 73.59 67.8202 76.33C67.1202 79.3 67.6102 82 69.6902 84.32C70.0302 84.32 70.3702 84.3 70.7002 84.3C70.3602 84.3 70.0202 84.32 69.6902 84.32C70.2102 87.78 73.3102 88.8 75.6002 90.59C77.6602 92.03 79.7102 93.48 81.7702 94.92C82.7402 95.01 83.7002 95.11 84.6702 95.2C85.3102 95.63 85.9502 96.07 86.5902 96.5C88.6502 96.88 90.2302 98.78 92.5402 98.39C96.6602 101.75 101.82 102.05 106.69 103.19C106.69 102.91 106.68 102.62 106.67 102.34C106.67 102.62 106.68 102.91 106.69 103.19C107.33 103.24 107.97 103.29 108.62 103.33C110.43 104.93 112.64 104.21 114.7 104.38L114.99 104.6L115.31 104.43C116.94 105.56 118.86 105.17 120.64 105.47C121.12 107.1 119.25 107.29 118.86 108.38C115.02 108.49 111.72 109.99 108.77 112.36C105.84 114.5 101.75 115.62 101.7 120.31C101.31 120.9 100.92 121.49 100.53 122.07C99.4302 122.22 98.8802 122.77 98.6202 123.93C96.5502 133.25 97.5002 142.1 102.58 150.34C102.22 152.24 103.9 153.04 104.71 154.3C104.46 155.32 104.21 156.33 103.96 157.35C100.24 158.79 96.1202 159.11 92.6702 161.33C86.6402 163.56 85.9602 164.68 87.8702 169.27C88.1402 169.22 88.4102 169.18 88.6902 169.15C88.4202 169.18 88.1402 169.22 87.8702 169.27C88.6902 171.69 90.8602 171.05 92.6102 171.37C95.7902 172.88 99.0002 174.29 102.64 174.19C106.55 175.29 110.43 176.57 114.59 176.23C116.58 176.58 118.17 175.75 119.92 174.77C117.79 172.97 115.64 173.3 113.51 173.54C109.58 172.73 105.66 171.93 101.73 171.12C99.1902 169.29 95.2102 169.91 93.6702 166.39C94.4802 166.35 95.3702 166.51 95.6902 165.44C97.1802 164.79 98.6702 164.14 100.16 163.5C100.65 163.39 101.13 163.28 101.62 163.17C104.27 163.76 106.39 162.1 108.75 161.48L108.67 161.38C111.08 162.52 113.22 164.01 114.67 166.32C117.01 168.5 119.24 170.84 122.53 171.61C123.49 172.22 124.46 172.83 125.42 173.44C129.4 176.11 133.83 176.88 138.52 176.46C140.34 177.9 142.18 177.2 144.01 176.5C145.21 176.19 146.55 178.05 147.65 176.26C150.57 175.7 153.5 175.13 156.42 174.57C157.47 175.89 156.99 178.43 159.57 178.55C159.67 179.46 159.77 180.38 159.87 181.29C160.25 182.45 160.65 183.6 161.77 184.3C162.48 187.58 163.29 190.79 166.48 192.67C165.69 195.43 168.23 197.02 168.8 199.31C169.36 202.28 171.7 201.48 173 200.69C175.8 198.99 173.14 197 172.76 195.13C172.73 194.53 172.7 193.93 172.67 193.33C172.81 190.76 173.27 188.09 170.62 186.34V185.84L170.53 185.35C170.91 184.19 170.72 183.16 169.8 182.3C168.85 179.08 167.85 175.88 165.8 173.14C165.29 171.7 164.59 170.31 164.89 168.7C167.77 166.82 169.81 164.14 171.71 161.35C172.76 159.71 173.81 158.07 174.86 156.44C175.75 155.99 175.7 155.18 175.66 154.37C177.62 150.43 179.45 146.47 177.78 141.92C179.88 136.72 178.8 132.27 174.61 128.56C174.96 129.81 175.31 131.06 175.65 132.3C176.44 132.85 176.84 133.63 177.15 134.46C176.84 133.62 176.44 132.85 175.65 132.3C175.31 132.98 174.97 133.65 174.63 134.33C174.37 134.33 174.12 134.35 173.87 134.37C174.12 134.35 174.38 134.33 174.63 134.33C174.97 133.65 175.31 132.98 175.65 132.3C175.3 131.05 174.95 129.8 174.61 128.56C174.36 128.4 174.08 128.31 173.78 128.29C173.34 126.37 172.02 125.36 170.38 124.34C166.44 121.88 162.11 120.57 157.73 119.28C157.9 117.45 157.21 115.86 156.38 114.31C156.63 111.34 154.61 109.12 153.77 106.51C156.14 105.93 158.75 107.01 160.98 105.48C162.22 105.84 163.49 106.68 164.64 105.3C166.27 105.51 168.48 105.91 168.24 103.56C168.07 101.95 167.01 99.81 164.43 99.92C160.56 100.08 156.68 100.16 152.81 100.27C150.34 97.4 150.73 93.39 148.79 90.3C148.95 88.82 148.62 87.48 147.61 86.34C147.91 85.42 147.19 84.92 146.75 84.31C146.55 82.59 147.34 80.71 145.96 79.17C145.5 78.23 145.03 77.28 144.57 76.34C144.57 74.6 145.58 72.69 143.67 71.3C143.38 70.3 143.75 69.07 142.65 68.34C143.38 66.28 142.29 64.47 141.85 62.57C143.11 62.15 144.38 61.73 145.64 61.31C148.79 61.32 151.78 60.65 154.62 59.29C154.62 58.95 154.62 58.6199 154.62 58.2799C155.64 57.6699 156.66 57.0599 157.68 56.4399C156.66 57.0499 155.64 57.6599 154.62 58.2799C154.62 58.6199 154.62 58.95 154.62 59.29C156.64 59.6 158.19 58.3999 159.87 57.6399C162.73 54.8599 165.6 52.09 168.46 49.31C168.87 47.66 170.35 50.1199 170.82 48.6899C176.39 49.8099 181.82 51.89 187.66 51.22C192.57 52.4 197.51 53.21 202.58 52.41C204.2 53.54 205.85 52.89 205.96 51.34C206.08 49.7 205.31 47.54 203.03 47.36C200.3 47.15 197.55 47.3 194.81 47.29C186.78 46.11 178.84 44.21 170.65 44.33C170.01 43.98 169.37 43.62 168.73 43.27H168.76C165.06 38.08 159.37 37.18 153.69 36.27C150.49 34.88 147.08 34.58 143.65 34.43C142.2 33.14 140.32 33.72 138.68 33.28C137.72 31.71 136.12 32.61 134.83 32.28C134.39 32.34 133.96 32.4 133.52 32.47C132.56 32.41 131.6 32.36 130.65 32.3C130.32 31.99 129.99 31.68 129.66 31.38C129.99 31.69 130.32 32 130.65 32.3C131.61 32.36 132.57 32.41 133.52 32.47C133.96 32.41 134.39 32.35 134.83 32.29C134.16 30.4 133.49 28.51 132.82 26.63C134.2 24.48 132.7 22.86 131.81 21.13C131.22 19.59 132.37 17.68 130.8 16.34C130.06 12.47 130.62 8.36995 128.53 4.71995C127.91 3.62995 127.35 2.45995 126.07 2.87995L126.12 2.82995ZM50.6902 58.2799C51.9502 57.3299 53.2102 57.6099 54.4602 57.9799C53.2102 57.6099 51.9602 57.3299 50.6902 58.2799C50.6002 58.2899 50.5102 58.32 50.4202 58.33C50.5102 58.31 50.6002 58.2899 50.6902 58.2799ZM58.2902 59.33C59.0402 59.19 59.9602 59.4599 60.7102 59.2799C59.9702 59.4599 59.0402 59.19 58.2902 59.33ZM88.9402 167.03C89.1902 166.74 89.4802 166.57 89.8002 166.47C89.4902 166.57 89.1902 166.74 88.9402 167.03ZM92.7702 162.35C91.8002 164.31 87.9802 163.94 88.7302 167.3C87.9802 163.94 91.8002 164.3 92.7702 162.34C94.6302 162.85 96.1602 162.31 97.6402 161.54C96.1702 162.3 94.6302 162.85 92.7702 162.34V162.35ZM141.91 172.59C142.55 172.7 143.18 172.74 143.72 172.35C144.62 172.41 145.54 172.45 146.3 172.66C145.55 172.45 144.62 172.41 143.72 172.35C143.17 172.74 142.55 172.7 141.91 172.59ZM137.69 174.87C137.72 175.39 138.07 175.93 138.61 176.47C138.07 175.93 137.72 175.4 137.69 174.87C137.66 174.34 137.95 173.83 138.7 173.33C137.96 173.83 137.67 174.35 137.69 174.87ZM156.9 174.08C156.79 174.22 156.67 174.35 156.55 174.48C156.67 174.35 156.79 174.21 156.9 174.08ZM112.71 30.34C113.18 29.59 113.85 29.41 114.55 29.35C113.84 29.41 113.18 29.59 112.71 30.34ZM108.96 30.16C108.68 29.57 107.92 29.47 107.09 29.43C107.91 29.47 108.67 29.58 108.96 30.16ZM95.8302 29.25C96.3202 28.75 96.7602 28.25 97.3002 27.96C96.7602 28.25 96.3202 28.75 95.8302 29.24V29.25ZM89.7502 22.33C91.0602 20.84 90.7702 19.99 90.0502 19.32C90.7802 19.99 91.0702 20.84 89.7502 22.33C89.7502 23.86 90.4102 24.62 91.3802 25.04C90.4102 24.62 89.7402 23.86 89.7502 22.33ZM58.6802 26.06C60.3502 25.16 62.0302 24.25 63.7002 23.35C63.9502 22.85 64.3402 22.58 64.7902 22.44C64.3402 22.58 63.9602 22.84 63.7002 23.35C62.0302 24.25 60.3502 25.16 58.6802 26.06C59.0102 26.14 59.3402 26.22 59.6702 26.3C61.3402 26.24 63.0102 26.17 64.6902 26.11C66.0302 26.14 67.3602 26.17 68.7002 26.2C69.3602 26.32 70.0202 26.45 70.6802 26.57C71.0402 26.42 71.3902 26.27 71.7502 26.12C72.7602 26.51 73.7602 26.9 74.7702 27.29C76.3202 31.61 72.4502 28.34 71.7202 29.46C70.7202 29.08 69.7102 28.7 68.7102 28.32C66.7902 29.07 64.8102 26.98 62.9002 28.44C62.5802 28.68 62.2502 28.92 61.9302 29.16C60.8002 29.27 59.6802 29.38 58.5502 29.49C58.5802 29.69 58.6102 29.89 58.6402 30.09L58.5502 29.49C59.6802 29.38 60.8002 29.27 61.9302 29.16C61.1802 28.21 60.4202 27.26 59.6702 26.31C59.3402 26.23 59.0102 26.15 58.6802 26.07C58.0202 26.49 57.3602 26.91 56.6902 27.33C57.3502 26.91 58.0202 26.49 58.6802 26.06ZM82.7502 30.28C82.9202 29.45 82.5602 28.09 84.2202 28.72C84.6102 28.87 85.2202 29.48 85.1602 29.64C84.6702 30.82 83.5902 30.15 82.7502 30.28ZM42.6902 29.34C42.4402 29.73 42.1302 29.96 41.8002 30.1C42.1402 29.97 42.4402 29.74 42.6902 29.34C43.0302 28.35 43.3702 27.35 43.7102 26.36C44.2402 26.36 44.7602 26.36 45.2902 26.37C44.7602 26.37 44.2402 26.37 43.7102 26.36C43.3702 27.35 43.0302 28.35 42.6902 29.34C45.6902 29.66 48.6902 29.98 51.6902 30.31C48.6902 29.99 45.6902 29.67 42.6902 29.34ZM77.7702 30.33C78.5002 29.91 79.2402 29.56 80.0302 29.4C79.2402 29.55 78.5002 29.91 77.7702 30.33C77.7302 30.66 77.6802 30.99 77.6202 31.32C77.6702 30.99 77.7202 30.66 77.7602 30.33H77.7702ZM56.8102 33.15C56.1402 32.35 55.3102 32.25 54.4502 32.31C55.3202 32.25 56.1502 32.34 56.8102 33.15ZM81.6802 44.4199C80.0102 43.4299 78.3402 42.44 76.6702 41.45C74.6602 39.92 72.1902 39.66 69.8702 38.99C69.8302 39.26 69.8302 39.4899 69.8502 39.6899C69.8302 39.4899 69.8302 39.25 69.8702 38.99C69.5402 38.73 69.2102 38.46 68.8802 38.2C67.0802 37.42 65.9202 35.42 63.6902 35.45C63.0802 35.05 62.4702 34.6499 61.8702 34.2599L61.7502 33.82L61.8002 33.36C67.4602 32.72 72.9202 34.9399 78.5602 34.5499C78.9602 35.3999 79.7902 35.2899 80.5202 35.4199C81.6902 37.0399 82.8602 38.65 84.0302 40.27C84.5402 41.64 85.0602 43.01 85.5802 44.4C84.1902 45.28 82.9402 44.1699 81.6902 44.4199H81.6802ZM78.9302 45.5099C79.5602 45.8399 80.4202 45.8599 81.7002 45.3499C80.4302 45.8599 79.5602 45.8299 78.9302 45.5099ZM94.6602 48.38C93.0402 46.34 91.4202 44.31 89.8002 42.27C89.4402 41.95 89.0802 41.63 88.7202 41.31C88.3202 40.64 87.9202 39.9699 87.5202 39.2999C87.5802 37.9999 87.6502 36.7 87.7102 35.41C88.7102 35.67 89.7002 35.92 90.7002 36.18C90.0502 34.88 89.4002 33.58 88.7502 32.28C88.7202 32.61 88.7002 32.95 88.6702 33.28C87.6802 33.28 86.7002 33.28 85.7102 33.28C85.4402 32.75 85.0302 32.53 84.5602 32.42C85.0302 32.52 85.4402 32.75 85.7102 33.28C86.7002 33.28 87.6802 33.28 88.6702 33.28C88.7002 32.95 88.7202 32.61 88.7502 32.28C88.3902 30.97 88.0302 29.66 87.6702 28.34C88.0302 29.65 88.3902 30.96 88.7502 32.28C89.4002 33.58 90.0502 34.88 90.6902 36.18C90.8902 36.39 91.1402 36.4799 91.4302 36.4599C93.2802 39.3499 93.7402 43.0299 96.4602 45.4399C96.5102 46.8299 97.4702 48.7699 94.6502 48.3899L94.6602 48.38ZM122.58 35.29C122.22 35.27 121.84 35.28 121.46 35.32C121.46 35.32 121.35 35.32 121.24 35.32H121.46C121.84 35.27 122.22 35.2599 122.58 35.2799V35.29ZM103.73 35.31C103.23 34.59 102.59 34.38 101.91 34.31C102.59 34.37 103.23 34.59 103.73 35.31ZM97.7802 35.2C98.2502 35.23 98.6802 35.1799 99.0302 34.9799C98.6802 35.1799 98.2502 35.2399 97.7802 35.2099C97.6602 33.9699 97.5402 32.72 97.4202 31.48C97.8602 30.98 98.3102 30.66 98.7702 30.48C98.3102 30.66 97.8602 30.98 97.4202 31.49C97.5402 32.73 97.6602 33.98 97.7802 35.22V35.2ZM102.81 35.4799C102.38 35.6399 102.05 35.9199 101.88 36.3499C102.06 35.9199 102.38 35.6399 102.81 35.4799ZM101.72 37.1899C101.59 37.2799 101.46 37.38 101.34 37.47C101.47 37.38 101.6 37.2799 101.72 37.1899ZM120.7 55.33C120.81 55.33 120.92 55.2999 121.02 55.2599C120.92 55.2999 120.81 55.32 120.7 55.33C120.37 55.33 120.03 55.33 119.7 55.32C120.03 55.32 120.37 55.32 120.7 55.33ZM94.7502 57.34C94.7502 57.34 94.6802 57.33 94.6702 57.32C94.6902 57.32 94.7502 57.34 94.7502 57.34ZM118.68 62.31C118.52 62.3 118.33 62.2599 118.13 62.2299C118.33 62.2599 118.52 62.29 118.68 62.31C118.35 61.31 118.01 60.2999 117.68 59.2999C117.76 58.9899 117.96 58.67 118.14 58.36C117.96 58.67 117.77 58.9899 117.68 59.2999C118.01 60.2999 118.35 61.31 118.69 62.31H118.68ZM114.69 59.4199C114.93 59.2999 115.27 59.2499 115.75 59.2999C115.26 59.2499 114.92 59.2999 114.69 59.4199ZM100.67 57.66C100.52 58.29 100.34 58.9399 100.64 59.2799C100.34 58.9399 100.51 58.3 100.67 57.66ZM58.7302 62.34C59.0702 61.4 60.0002 61.49 60.7102 61.2C62.7102 61.26 64.6802 62.64 66.7202 61.36C66.9802 61.49 67.2602 61.53 67.5502 61.47C70.3402 62.79 73.1502 62.56 75.9502 61.52C76.1202 61.58 76.2902 61.5699 76.4502 61.4799C81.3002 62.6599 86.1502 62.6799 91.0102 61.5099C92.2902 62.7799 93.5102 62.3099 94.7102 61.3699C95.7802 61.8299 97.0302 62.0199 97.6402 63.2099C89.6602 65.3199 81.6802 67.44 73.7002 69.55C68.7102 67.15 63.7202 64.75 58.7302 62.34ZM112.09 63.9399C112.66 63.4899 113.03 62.7399 113.67 62.3899C113.04 62.7399 112.66 63.4899 112.09 63.9399ZM80.9702 73.46C86.8202 71.86 91.3402 70.63 95.8502 69.39C97.8102 69.33 99.7702 69.26 101.74 69.2C101.99 69.34 102.26 69.41 102.54 69.41C102.66 70.04 102.77 70.67 102.89 71.31C103.15 73.92 105.28 75.45 106.5 77.5C107.48 80.02 109.06 82.16 110.76 84.23C111.04 85.49 111.46 86.67 112.65 87.38C113.1 89.37 114.83 90.97 114.4 93.22C113.9 93.22 113.4 93.22 112.9 93.22C110.07 90.27 107.1 87.5 103.09 86.19C102.78 86.26 102.48 86.29 102.19 86.3C102.48 86.3 102.78 86.26 103.09 86.19C99.9602 83.68 96.7302 81.36 92.7902 80.29C90.3302 78.53 87.9002 76.73 84.8402 76.11V76.14C83.8102 75.42 82.7802 74.7 80.9802 73.45L80.9702 73.46ZM94.7002 83.3C94.1502 83.82 93.6002 84.35 93.0402 84.87C93.5902 84.35 94.1402 83.82 94.7002 83.29V83.3ZM90.6902 81.34C90.6902 81.02 90.6602 80.7 90.6202 80.38C90.6602 80.7 90.6802 81.02 90.6902 81.34ZM92.7002 94.3C92.0402 94.3 91.3702 94.32 90.7102 94.32C88.8402 90.1 83.8102 90.92 80.9902 88.21C79.4702 86.82 77.7602 85.81 75.6802 85.53C75.4102 85.34 75.1102 85.22 74.7802 85.17C74.9402 83.73 74.4002 82.72 73.0102 82.21C72.4402 80.52 72.6902 78.91 73.4702 77.35C75.1802 74.99 76.8702 77.47 78.5702 77.38C80.2302 78.42 81.8902 79.45 83.5602 80.49C83.5602 80.49 83.5602 80.49 83.5602 80.48C84.8902 81.2 86.2102 81.91 87.5402 82.63C87.7602 83.19 88.1602 83.35 88.7102 83.15C89.9902 83.93 91.0302 85.17 92.7002 85.19C93.3802 85.56 94.0602 85.94 94.7302 86.31C97.7202 87.99 100.24 90.51 103.71 91.32C105.09 93.57 107.61 94.1 109.68 95.31C109.73 95.94 110.01 96.29 110.7 96.18C112.03 96.9 113.35 97.61 114.68 98.33C115.34 97.66 115.99 96.99 116.65 96.32C116.65 96 116.66 95.67 116.66 95.35C116.66 95.67 116.66 96 116.65 96.32C115.99 96.99 115.34 97.66 114.68 98.33L114.55 98.45C114.04 100.17 112.3 98.01 111.68 99.37C111.34 99.37 111.01 99.39 110.67 99.4C104.68 97.7 98.6802 96.01 92.6902 94.31L92.7002 94.3ZM121.62 96.36C119.98 96.69 118.35 97.02 116.71 97.36C118.35 97.03 119.98 96.7 121.62 96.36C122.67 98.09 123.94 99.39 125.54 100.05C123.95 99.39 122.68 98.09 121.62 96.36ZM137.68 103.34H137.91C137.83 103.34 137.75 103.34 137.68 103.34ZM127.7 107.33C127.66 106.68 127.48 106.25 127.22 105.95C127.48 106.25 127.67 106.68 127.7 107.33ZM115.97 114.52C116.23 114.48 116.46 114.38 116.67 114.22C118.43 114.54 119.69 113.74 120.71 112.42C122.08 112.51 123.6 111.94 124.65 113.36C122.23 117.31 119.04 115.47 115.97 114.52ZM108.69 116.32C109.06 116.55 109.43 116.71 109.81 116.77C109.44 116.7 109.07 116.55 108.69 116.32ZM111.63 118.31C111.63 117.67 111.64 117.03 111.65 116.39C111.65 117.03 111.64 117.67 111.63 118.31C110.99 118.32 110.34 118.33 109.7 118.34C110.34 118.33 110.98 118.32 111.63 118.31ZM100.35 131.44C100.53 131.76 100.89 131.94 101.57 131.89C100.89 131.95 100.52 131.77 100.35 131.44ZM103.7 132.26C103.39 132.73 103.17 133.2 103.05 133.68C103.17 133.21 103.39 132.73 103.7 132.26ZM104.65 144.33C104.89 143.74 104.58 143.41 104.1 143.15C103.95 140.85 103.8 138.55 103.65 136.25C106.13 135.27 106.41 138.86 108.55 138.61C110.24 141.27 113.13 142.08 115.75 143.3C116.59 144.9 118.09 145.2 119.69 145.28C122.43 146.91 125.07 148.83 128.54 148.38C130.01 149.74 131.87 149.13 133.56 149.4C133.72 151.83 131.73 151.27 130.45 151.54C124.2 152.88 117.94 154.15 111.69 155.45C108.03 152.57 106.78 148.17 104.66 144.33H104.65ZM125.84 144.22C126.4 144.35 127.03 144.36 127.68 144.34C129.02 145 130.36 145.66 131.7 146.33C131.88 146.37 132.06 146.42 132.24 146.47C132.07 146.42 131.89 146.38 131.7 146.33C130.36 145.67 129.02 145.01 127.68 144.34C127.03 144.37 126.41 144.35 125.84 144.22ZM138.7 148.35C138.7 148.01 138.69 147.67 138.68 147.33C138.68 147.67 138.69 148.01 138.7 148.35ZM150.69 149.95C150.27 150.27 149.93 150.72 149.67 151.33C149.93 150.72 150.27 150.26 150.69 149.95ZM137.67 151.32C137.51 151.01 137.39 150.72 137.32 150.43C137.39 150.71 137.51 151.01 137.67 151.32ZM114.68 161.33C114.45 161.18 114.22 161.05 113.98 160.95C114.22 161.06 114.45 161.19 114.68 161.33ZM151.2 170.22C148.7 170.63 146.19 171 143.68 171.38C137.88 171.77 132.22 171.19 126.77 169.04C124.64 167.37 122.56 165.58 119.67 165.39C118.04 164.33 116.9 162.84 115.97 161.16C116.75 157.79 120.44 160.55 121.8 158.39C123.74 158.09 125.69 157.8 127.63 157.5C130.64 157.08 133.66 156.65 136.67 156.23C136.33 155.59 135.99 154.95 135.65 154.31C135.11 153.23 135.13 152.51 135.53 152.05C135.14 152.51 135.12 153.22 135.65 154.31C135.99 154.95 136.33 155.59 136.67 156.23C139.77 156.63 142.58 154.51 145.71 155.21C146.73 156.91 147.74 158.61 148.76 160.31C150.03 162.72 151.3 165.13 152.57 167.54C153.43 169.11 152.82 169.95 151.2 170.21V170.22ZM157.74 158.26C157.72 158.6 157.71 158.95 157.69 159.29C157.71 158.94 157.72 158.6 157.74 158.26ZM156.69 163.31C157.09 163.55 157.35 163.83 157.43 164.16C157.35 163.84 157.09 163.55 156.69 163.31ZM164.97 166.08C164.82 166.35 164.71 166.64 164.66 166.96C164.71 166.63 164.82 166.34 164.97 166.08ZM171.37 161.25C171.37 161.25 171.52 161.29 171.63 161.32L171.37 161.25ZM168.1 162.26C167.38 162.11 166.96 161.67 166.76 161.03C166.96 161.66 167.37 162.1 168.1 162.26ZM163.7 126.32C166.05 127.65 168.4 128.99 170.75 130.32C171.72 132.01 172.69 133.7 173.66 135.39C173.68 136.04 173.69 136.68 173.71 137.33C173.74 139.34 173.78 141.34 173.81 143.35C174.13 143.14 174.42 143.02 174.7 142.96C174.43 143.02 174.13 143.14 173.81 143.35C173.29 144.64 173.78 146.21 172.67 147.33C171.97 147.85 171.68 148.53 171.87 149.39C171.48 150.37 171.1 151.35 170.71 152.33C169.62 153.03 169.62 154.16 169.53 155.26C168.22 155.8 167.63 156.86 167.44 158.19C166.54 158.59 166.69 159.42 166.63 160.17C164.73 161.15 163.71 163.97 160.85 162.93C159.82 161.35 158.79 159.76 157.76 158.18C157.76 157.56 157.76 156.94 157.76 156.32C157.93 155.39 157.95 154.5 158.41 153.55C160.7 148.88 161.5 144.1 158.62 139.31C158.93 138.06 158.06 137.25 157.52 136.32C157.62 135.52 157.64 134.04 157.85 134.01C162.6 133.41 161.42 130.54 160.83 127.39C160.07 123.37 163 127.39 163.72 126.3L163.7 126.32ZM156.94 141.77C156.18 140.21 155.48 138.79 154.79 137.37C155.49 138.79 156.18 140.21 156.94 141.77ZM154.94 124.26C154.48 126.09 156.52 127.5 155.8 129.38C153.36 128.56 153.28 125.74 151.53 124.34C150.55 124.34 149.57 124.36 148.6 124.36C149.58 124.36 150.56 124.34 151.53 124.34C151.82 123.12 152.92 123.38 153.73 123.12C154.13 123.5 154.54 123.88 154.94 124.26ZM143.67 120.34C143.65 120.72 143.63 121.11 143.6 121.49C143.94 122.41 144.81 122.25 145.52 122.41C145.56 122.72 145.65 123.02 145.79 123.3C145.57 126.27 148.57 127.28 149.57 129.51C150.1 131.43 151.34 132.89 152.64 134.33C154.14 138.88 155.33 143.48 154.85 148.34C154.49 148.65 154.14 148.97 153.78 149.28C153.05 147.96 152.32 146.65 151.58 145.33C151.32 142.99 149.91 141.21 148.65 139.36L148.67 139.33C147.31 138.87 146.79 137.78 146.56 136.48C146.26 136.42 145.96 136.38 145.65 136.35C145.31 135.7 144.96 135.06 144.62 134.41C143.87 134.38 143.36 134.6 143.05 135.03C143.36 134.6 143.88 134.38 144.62 134.41C144.45 133.93 144.25 133.45 144.05 132.98C144.24 133.46 144.44 133.93 144.62 134.41C144.96 135.06 145.31 135.7 145.65 136.35C145.95 136.38 146.26 136.43 146.56 136.49C146.59 136.14 146.61 135.79 146.64 135.44C146.85 132.56 144.71 130.69 143.57 128.4C143.81 126.38 142.27 125.12 141.45 123.57C139.65 120.17 142.17 121.45 143.6 121.5C143.62 121.12 143.64 120.73 143.67 120.35V120.34ZM141.24 139.23C141.38 138.92 141.53 138.61 141.69 138.3C141.53 138.61 141.37 138.92 141.24 139.23ZM139.5 120.55C138.91 120.75 138.34 121.04 137.8 121.39C138.83 122.37 139.16 123.8 139.74 125.07C139.17 123.8 138.83 122.37 137.8 121.39C138.35 121.04 138.91 120.75 139.5 120.55ZM132.67 126.33C132.14 125.87 131.76 125.31 131.45 124.71C131.76 125.31 132.14 125.88 132.67 126.33ZM132.38 128.39C133.86 133.51 137.15 137.71 139.5 142.39C138.54 143.54 142.89 145.78 138.7 146.26C135.24 144.48 131.31 144.51 127.67 143.4C126.35 143.01 125.04 142.62 123.72 142.23C123.72 142.23 123.72 142.23 123.72 142.24C120.43 140.47 117.13 138.71 113.84 136.94C111.75 134.92 108.49 134.61 106.79 132.04C107.02 130.87 106.75 129.85 105.83 129.05C105.94 128.76 105.87 128.52 105.62 128.33C105.21 125.56 106.03 123.4 108.69 122.14C109.98 122.79 110.79 121.86 111.69 121.23C114.41 120.95 117.27 121.94 119.86 120.39C121.8 120.34 123.73 120.29 125.67 120.24C129.62 121.55 129.82 125.93 132.37 128.39H132.38ZM127.68 117.32C127.39 117.16 127.18 116.95 127.03 116.71C127.17 116.95 127.38 117.15 127.68 117.32ZM151.68 107.37C151.77 107.36 151.85 107.34 151.93 107.32C151.85 107.33 151.76 107.35 151.68 107.37ZM139.69 107.28C139.68 107.57 139.67 107.87 139.67 108.17C140.86 108.42 141.78 107.87 142.68 107.21C147.28 106.41 150.65 107.56 151.48 112.75L151.39 113.06L151.59 113.31C151.91 114.6 152.23 115.9 152.55 117.19C150.35 117.16 148.16 117.14 145.96 117.11C145.44 115.49 143.66 115.38 142.64 114.36C141.52 111.99 137.71 111.88 137.75 108.54C138.39 108.42 139.02 108.29 139.66 108.17C139.66 107.87 139.66 107.58 139.68 107.28H139.69ZM153.64 105.3C153.36 104.29 153.07 103.28 152.78 102.28C153.06 103.29 153.35 104.3 153.63 105.3H153.64ZM136.82 62.2099C136.79 62.5399 136.76 62.8799 136.74 63.2099C138.01 64.6899 137.11 66.97 138.64 68.34C139.26 74.69 141.3 80.66 143.56 86.57C143.61 88.23 143.43 89.93 144.6 91.35C144.6 92.53 144.53 93.73 145.52 94.64C146.31 96.4 146.75 98.23 146.62 100.17C146.65 100.58 146.68 101 146.7 101.41C146.67 101 146.64 100.58 146.62 100.17C145.64 100.21 144.67 100.25 143.69 100.29C139.16 98.7 134.29 101.15 129.81 99.11C128.1 96.18 126.4 93.25 124.69 90.32C124.26 86.65 121.06 84.52 119.74 81.34C120.09 80.32 118.93 80.07 118.73 79.34C118.8 77.62 117.6 76.48 116.8 75.16C116.13 75.9 115.46 76.64 114.79 77.37C114.74 77.67 114.73 77.98 114.74 78.29C115.21 80.78 115.61 83.29 117 85.45C115.62 83.29 115.21 80.78 114.74 78.29C114.73 77.98 114.74 77.68 114.79 77.37C115.46 76.63 116.13 75.9 116.8 75.16C116.04 73.89 115.29 72.62 114.53 71.35C114.24 71.35 113.94 71.35 113.65 71.36C113.94 71.36 114.24 71.35 114.53 71.35C115.35 69.32 112.94 68.48 112.84 66.78C114.73 66 116.99 66.94 118.75 65.54L120.71 65.1299C122.18 65.0899 123.73 65.53 125.04 64.47C125.29 64.65 125.51 64.62 125.69 64.36C129.37 63.98 133.05 63.6099 136.73 63.2299C136.76 62.8999 136.79 62.5599 136.81 62.2299L136.82 62.2099ZM128.77 60.4599C128.12 60.2899 127.1 60.4699 126.62 60.1399C127.1 60.4799 128.12 60.2899 128.77 60.4599ZM140.7 58.36C140.97 58.94 141.27 59.5199 141.44 60.1199C141.27 59.5199 140.97 58.95 140.7 58.36ZM144.7 53.36C145.11 53.39 145.52 53.37 145.94 53.36C145.52 53.38 145.11 53.4 144.7 53.36ZM139.44 54.4799C139.05 53.8299 138.72 53.16 138.66 52.4C138.71 53.16 139.05 53.8299 139.44 54.4799ZM122.97 53.7299C123.45 53.4999 124 53.56 124.73 54.33C125.71 54.33 126.7 54.3399 127.68 54.3499C126.7 54.3499 125.71 54.34 124.73 54.33C124 53.57 123.45 53.5099 122.97 53.7299ZM133.75 53.38C134.09 52.72 134.44 52.0599 134.78 51.3899C135.39 51.1999 135.99 50.64 136.59 50.61C135.98 50.64 135.38 51.1999 134.78 51.3899C134.44 52.0499 134.09 52.71 133.75 53.38ZM166.26 49.32C165.04 49.58 163.87 49.71 163.57 47.47C162.81 47.96 162.06 47.89 161.32 47.66C162.06 47.89 162.81 47.95 163.57 47.47C163.86 49.71 165.04 49.58 166.25 49.32H166.26ZM187.75 48.4399C187.93 48.4099 188.11 48.3799 188.28 48.3699C188.11 48.3699 187.93 48.3999 187.75 48.4399C183.66 46.6899 179.08 46.9499 174.81 45.9199C179.08 46.9499 183.65 46.6899 187.75 48.4399ZM142.67 44.25C142.98 44.39 143.3 44.43 143.63 44.38C146.42 46.13 149.74 45.16 152.69 46.11C153.67 46.23 154.66 46.3499 155.64 46.4799C156.49 48.2499 157.61 46.6799 158.61 46.7299C158.81 47.2899 159.2 47.4 159.73 47.2C160.01 47.3 160.29 47.37 160.58 47.4C157.91 50.78 153.87 50.63 150.2 51.33C148.63 51.63 146.91 51.1599 145.47 52.2099C145.21 52.0499 144.96 52.0599 144.72 52.2299C142.76 51.9099 140.8 51.5999 138.84 51.2799C138.43 48.6999 137.11 46.22 137.99 43.5C139.53 43.87 141 44.69 142.68 44.24L142.67 44.25ZM166.55 42.84C165.6 42.38 164.73 41.6999 163.72 41.4199C164.74 41.6999 165.61 42.38 166.55 42.84ZM142.61 40.47C143.93 41.17 145.23 41.37 146.52 40.97C145.23 41.38 143.93 41.1799 142.61 40.4799C142.61 40.4799 142.58 40.44 142.56 40.43C142.58 40.45 142.59 40.4599 142.61 40.4799V40.47ZM115.39 39.57C116.64 40.79 118.15 40.64 119.67 40.38C121.97 40.6 124.09 42 126.52 41.43C128 42.61 129.77 42.55 131.52 42.58C131.56 42.84 131.66 43.08 131.82 43.29C132.41 45.98 134.26 48.38 133.66 51.33C130.17 52.24 126.5 50.8599 123.04 52.1399C120.07 50.4499 116.8 51.7299 113.71 51.2099C110.7 50.9199 107.69 50.6299 104.69 50.3499C104.62 50.6799 104.56 51.0199 104.49 51.3499C104.87 51.6999 105.25 52.0399 105.63 52.3899C105.69 53.0599 105.67 53.77 105.91 54.38C105.67 53.77 105.7 53.0599 105.63 52.3899C105.25 52.0399 104.87 51.6999 104.49 51.3499C104.56 51.0199 104.62 50.6799 104.69 50.3499C104.18 49.2399 103.92 47.9699 102.68 47.3499C102.02 44.3499 101.37 41.36 100.71 38.36C103.03 38.42 105.35 38.48 107.67 38.54C110.2 39.26 112.66 40.49 115.4 39.57H115.39ZM100.68 38.31C100.65 38.21 100.6 38.0299 100.6 38.0299L100.68 38.31ZM115.7 36.25C116.01 36.83 116.8 37.45 117.11 38.02C116.8 37.44 116 36.82 115.7 36.25ZM129.73 34.34C128.38 35 127.02 35.66 125.67 36.33C127.02 35.67 128.37 35.01 129.73 34.34C130.27 34.07 130.5 33.65 130.6 33.18C130.5 33.66 130.28 34.07 129.73 34.34ZM105.7 32.39C105.7 32.39 105.69 32.36 105.68 32.32C105.69 32.35 105.7 32.39 105.7 32.39ZM112.63 32.39C111.31 32.36 109.98 32.33 108.66 32.31C109.98 32.34 111.31 32.37 112.63 32.39ZM105.65 32.25C104.22 32.49 102.94 32.18 101.85 31.17C101.06 30.57 100.3 30.25 99.5502 30.28C100.29 30.25 101.06 30.57 101.85 31.17C102.93 32.18 104.21 32.48 105.64 32.25C105.64 31.28 105.65 30.31 105.66 29.35C105.66 30.32 105.65 31.29 105.64 32.26L105.65 32.25Z" fill="#222221"/>
<path d="M160.34 0.449974C158.88 1.03997 158.36 2.36997 158.83 3.65997C159.96 6.73997 162.56 6.72997 165.25 6.27997C165.41 6.24997 165.56 6.18997 165.72 6.13997C166.73 6.27997 167.76 6.23997 168.18 5.14997C168.65 3.96997 167.71 3.43997 166.85 2.94997C165.29 0.509974 163.26 -0.730026 160.33 0.449974H160.34Z" fill="#222221"/>
</g>
<defs>
<clipPath id="clip0_109_18">
<rect width="206.03" height="201.42" fill="white"/>
</clipPath>
</defs>
</svg>
