<svg width="438" height="653" viewBox="0 0 438 653" fill="none" xmlns="http://www.w3.org/2000/svg">
<path d="M226.41 0C230.68 0.47 234.95 1 239.23 1.39C287.78 5.93 329.85 25 365.77 57.82C366.373 58.4874 367.143 58.9833 368 59.2572C368.857 59.5312 369.771 59.5736 370.65 59.38C376.2 58.51 380.37 61.62 380.88 66.5C381.4 71.5 378.41 75.69 373.88 76.24C368.14 76.93 364.47 74.07 363.43 68.32C363.215 66.9854 362.605 65.7457 361.68 64.76C331.393 36.46 295.833 18.5967 255 11.17C237.987 8.14052 220.659 7.28367 203.43 8.62C158.43 12 118.43 28.02 83.6899 56.88C70.147 68.1844 58.082 81.1498 47.7799 95.47C47.1666 96.1496 46.7496 96.9832 46.5735 97.8815C46.3973 98.7798 46.4687 99.7091 46.7799 100.57C47.145 101.698 47.2761 102.889 47.1652 104.07C47.0543 105.251 46.7036 106.397 46.1347 107.438C45.5657 108.478 44.7905 109.392 43.8564 110.123C42.9223 110.853 41.8489 111.386 40.7019 111.688C39.5549 111.989 38.3584 112.054 37.1856 111.877C36.0128 111.701 34.8883 111.287 33.8809 110.661C32.8736 110.035 32.0045 109.21 31.3269 108.237C30.6492 107.263 30.1773 106.162 29.9399 105C29.5994 103.901 29.4922 102.743 29.6252 101.601C29.7581 100.458 30.1283 99.3557 30.712 98.3643C31.2957 97.373 32.08 96.5146 33.0147 95.8439C33.9494 95.1733 35.0138 94.7054 36.1399 94.47C38.4971 93.9125 40.5408 92.4507 41.8299 90.4C76.4032 43.4667 122.343 14.61 179.65 3.83C189.06 2.05 198.75 1.72 208.3 0.68C209.176 0.520361 210.039 0.293013 210.88 0L226.41 0ZM330 329.86C330 367.35 330.32 404.86 329.9 442.32C329.53 475.59 323.72 508.07 313.9 539.84C313.438 541.568 313.493 543.393 314.06 545.09C315.7 549.97 313.66 554.96 309.01 556.66C307.936 557.064 306.794 557.252 305.648 557.214C304.501 557.176 303.374 556.912 302.33 556.437C301.286 555.962 300.345 555.286 299.563 554.448C298.781 553.609 298.171 552.624 297.77 551.55C296.04 546.7 298.35 542.15 303.16 540.14C304.666 539.494 305.863 538.29 306.5 536.78C313.5 514.94 318.5 492.64 320.35 469.78C321.61 454.12 322.35 438.38 322.35 422.68C322.57 354.68 322.46 286.59 322.44 218.54C322.349 192.679 312.585 167.787 295.067 148.762C277.55 129.737 253.547 117.956 227.781 115.735C202.015 113.515 176.351 121.016 155.837 136.764C135.323 152.512 121.444 175.365 116.93 200.83C115.766 207.29 115.154 213.837 115.1 220.4C114.89 244.14 114.98 267.88 115.03 291.62C115.13 338.97 115.36 386.32 115.34 433.67C115.34 440.55 114.27 447.44 113.65 454.32C113.44 456.62 113.28 458.68 114.65 460.96C115.222 461.958 115.581 463.064 115.703 464.208C115.825 465.353 115.708 466.51 115.359 467.606C115.01 468.702 114.437 469.714 113.677 470.577C112.916 471.441 111.984 472.136 110.94 472.62C109.924 473.154 108.813 473.482 107.671 473.584C106.528 473.687 105.376 473.562 104.282 473.217C103.188 472.872 102.173 472.314 101.295 471.575C100.418 470.836 99.6955 469.93 99.1699 468.91C98.6202 467.901 98.2817 466.79 98.175 465.645C98.0683 464.501 98.1956 463.347 98.5493 462.253C98.9029 461.16 99.4754 460.149 100.232 459.284C100.989 458.419 101.913 457.716 102.95 457.22C105.08 456.22 105.95 455.1 106.08 452.83C106.47 445.7 107.44 438.57 107.45 431.44C107.503 360.813 107.477 290.183 107.37 219.55C107.37 168.35 140.79 124.46 190.28 111.3C205.004 107.344 220.385 106.466 235.463 108.72C250.542 110.974 264.993 116.312 277.917 124.401C290.84 132.49 301.957 143.155 310.574 155.732C319.191 168.31 325.123 182.528 328 197.5C329.362 204.755 330.058 212.119 330.08 219.5C330.29 256.29 330.17 293.07 330.17 329.86H330Z" fill="#1EAEA3"/>
<path d="M410.48 330.11C410.48 368.77 410.97 407.45 410.34 446.11C409.66 488.36 402.11 529.56 388.79 569.68C387.86 572.48 386.34 574.13 383.41 573.18C380.22 572.18 380.76 569.59 381.41 567.04C385.6 551.55 390.55 536.21 393.68 520.52C397.1 503.036 399.63 485.39 401.26 467.65C402.68 452.72 402.73 437.65 402.76 422.65C402.9 354.723 402.9 286.797 402.76 218.87C402.63 172.22 386.89 131.27 355.86 96.49C326.3 63.37 289.26 43.41 245.36 36.88C214.789 32.1523 183.513 35.4784 154.62 46.53C153.121 47.2082 151.899 48.38 151.16 49.85C148.87 54.48 144.02 56.5 139.35 54.44C138.304 53.974 137.36 53.3054 136.573 52.473C135.787 51.6406 135.173 50.6607 134.766 49.5899C134.36 48.519 134.17 47.3783 134.207 46.2336C134.243 45.0889 134.506 43.9627 134.98 42.92C135.453 41.8439 136.142 40.8765 137.005 40.0778C137.867 39.2791 138.885 38.6662 139.994 38.2771C141.103 37.888 142.281 37.7309 143.453 37.8157C144.626 37.9005 145.768 38.2253 146.81 38.77C147.655 39.2411 148.599 39.5048 149.566 39.5396C150.532 39.5744 151.493 39.3792 152.37 38.97C171.585 31.9959 191.78 28.0914 212.21 27.4C304.05 23.86 385.83 87.16 406.04 177.2C409.022 190.49 410.521 204.07 410.51 217.69V330.16L410.48 330.11Z" fill="#1EAEA3"/>
<path d="M303.23 325C303.23 359.43 303.29 393.86 303.23 428.3C303.11 474.3 295.7 518.84 277.23 561.3C263.57 593.065 244.985 622.476 222.16 648.45C221.62 649.06 221.1 649.7 220.53 650.3C218.78 652.14 216.8 652.92 214.7 650.99C212.6 649.06 213.01 647.07 214.7 645.09C217.7 641.61 220.7 638.17 223.6 634.62C257.37 593.29 279.6 546.47 289.6 494.06C292.31 479.83 293.31 465.22 294.29 450.73C295.27 436.24 295.51 421.88 295.54 407.44C295.673 344.92 295.697 282.4 295.61 219.88C295.61 183.48 272.03 153.08 236.7 144.31C231.29 142.96 225.58 142.7 219.98 142.31C218.457 142.376 217.021 143.037 215.98 144.15C212.39 148.02 206.83 148.62 203.1 145.25C201.41 143.671 200.403 141.495 200.293 139.185C200.183 136.875 200.978 134.613 202.51 132.88C205.89 129.17 211.15 129.13 215.18 132.41C216.65 133.597 218.454 134.296 220.34 134.41C240.312 134.729 259.523 142.121 274.557 155.272C289.592 168.422 299.475 186.478 302.45 206.23C302.985 209.949 303.246 213.703 303.23 217.46C303.263 253.307 303.263 289.153 303.23 325Z" fill="#1EAEA3"/>
<path d="M88.2699 266.39V316.45C88.2699 318.64 88.5399 320.31 90.4699 321.93C94.1199 324.99 94.0799 330.86 90.8299 334.24C89.2239 335.907 87.0267 336.877 84.7125 336.938C82.3982 337 80.1525 336.149 78.4599 334.57C75.0199 331.28 74.6399 325.52 78.1899 322.29C80.2999 320.36 80.6699 318.41 80.6699 315.85C80.6099 284.01 80.6099 252.167 80.6699 220.32C80.6699 155.44 123.58 100.4 186.72 85.15C219.883 77.1145 254.848 81.6646 284.851 97.92C314.853 114.175 337.76 140.981 349.14 173.15C349.97 175.47 350.8 177.79 351.55 180.15C352.46 183.03 353.36 185.53 356.46 187.26C360.46 189.49 360.96 195.64 358.1 199.45C355.59 202.82 349.98 203.71 346.33 201.32C344.418 200.014 343.084 198.022 342.603 195.757C342.123 193.492 342.533 191.13 343.75 189.16C344.52 187.84 345.15 185.85 344.75 184.51C331.35 141.83 304.54 111.03 261.83 96.65C210.58 79.4 164.76 90.65 126.03 128.26C104.12 149.55 91.9399 176.16 89.1699 206.53C87.8299 221.23 88.5399 236.11 88.3499 250.9C88.2199 256.05 88.2699 261.22 88.2699 266.39Z" fill="#1EAEA3"/>
<path d="M142.23 325.47V431.57C142.15 472.28 129.32 508.45 103.23 539.79C90.8389 554.602 75.8924 567.073 59.0999 576.61C55.5999 578.61 53.3699 578.43 52.0999 575.95C50.5299 572.75 52.6699 571.28 55.0999 569.87C94.0999 546.87 119.36 513.48 129.99 469.52C132.722 457.891 134.201 446.004 134.4 434.06C135.03 405.4 134.65 376.73 134.59 348.06C134.51 305.18 134.25 262.31 134.25 219.43C134.25 199.94 139.99 182.23 152.18 166.86C155.403 162.983 158.863 159.31 162.54 155.86C164.19 154.24 165.36 152.86 165.36 150.27C165.394 148.31 166.148 146.43 167.477 144.988C168.806 143.547 170.619 142.643 172.57 142.45C177.57 141.98 181.17 144.22 182.39 148.54C182.954 150.474 182.821 152.544 182.015 154.389C181.209 156.235 179.781 157.739 177.98 158.64C176.957 159.202 175.795 159.463 174.63 159.39C171.21 158.8 168.92 160.39 166.63 162.6C150 178.34 142 197.64 142 220.43C142.053 255.437 142.053 290.437 142 325.43L142.23 325.47ZM34.4799 258.18V297.31C34.5932 342.07 34.7099 386.833 34.8299 431.6C34.8299 445.53 31.0899 458.29 22.1899 469.16C18.9999 473 15.0899 476.29 11.3799 479.7C9.4799 481.45 7.0799 481.62 5.4999 479.47C3.9199 477.32 4.4999 475.11 6.7399 473.37C20.4899 462.73 26.9999 448.75 26.9299 431.31C26.7799 359.87 26.4299 288.42 27.0199 216.98C27.4199 167.98 44.8699 125.15 77.8799 88.8201C82.6899 83.5301 88.1499 78.8201 93.1599 73.7201C94.2211 72.5934 94.894 71.1566 95.0799 69.6201C95.5499 64.6201 99.1599 61.1901 104.2 61.4301C109.24 61.6701 112.58 65.5801 112.2 70.9801C112.163 72.1307 111.882 73.2603 111.375 74.294C110.868 75.3277 110.147 76.2417 109.26 76.9756C108.373 77.7094 107.34 78.2462 106.23 78.5505C105.119 78.8547 103.957 78.9193 102.82 78.7401C100.35 78.3501 98.9499 79.1301 97.2899 80.6201C65.2899 109.27 45.2099 144.62 37.5899 186.88C35.5899 197.68 34.9799 208.77 34.5899 219.76C34.0899 232.55 34.4799 245.38 34.4799 258.18ZM352 234.19C356.63 234.19 359.73 236.19 361.09 239.4C362.52 242.82 362.01 246.83 359.14 249.07C357.02 250.72 356.83 252.54 356.83 254.84C356.83 316.55 357.22 378.25 356.78 439.95C356.431 493.4 344.328 546.119 321.33 594.37C314.79 608.24 306.8 621.37 299.42 634.9C298.82 636 297.96 637.52 296.98 637.73C295.47 638.06 292.78 637.93 292.34 637.09C291.959 636.244 291.762 635.328 291.762 634.4C291.762 633.473 291.959 632.556 292.34 631.71C296.25 624.49 300.74 617.59 304.65 610.37C323.679 575.261 336.852 537.282 343.65 497.93C347.588 474.674 349.472 451.116 349.28 427.53C349.14 370.29 349.097 313.053 349.15 255.82C349.15 253.12 349.15 250.76 346.62 248.61C343.84 246.23 343.55 242.61 345.15 239.19C345.708 237.798 346.647 236.592 347.858 235.708C349.069 234.824 350.504 234.298 352 234.19ZM425.76 490.21C427.02 473.5 428.36 456.8 429.49 440.08C429.86 434.46 429.74 428.8 429.74 423.16V220.84C429.846 183.354 420.068 146.502 401.39 114C400.971 113.058 400.31 112.244 399.474 111.641C398.637 111.039 397.656 110.669 396.63 110.57C392.01 109.94 389.49 105.57 390.18 100.47C390.72 96.4701 394.87 93.1801 399.01 93.4101C403.52 93.6601 407.88 97.2301 407.07 101.41C405.9 107.41 409.07 111.57 411.54 116.2C423.74 139.32 432.06 163.76 435.16 189.74C436.557 201.616 437.264 213.562 437.28 225.52C437.46 294.25 437.67 362.99 437.16 431.72C437.01 451.84 434.53 471.94 433.16 492.05C432.97 494.82 431.45 496.05 428.74 495.81C426.18 495.58 425.29 493.94 425.76 490.21Z" fill="#1EAEA3"/>
<path d="M53.67 410.46C53.67 349.613 53.64 288.76 53.58 227.9C53.4401 226.15 52.7144 224.497 51.52 223.21C48.2 219.53 48.06 213.88 51.52 210.5C53.2029 208.91 55.4393 208.038 57.7545 208.07C60.0696 208.102 62.2813 209.034 63.92 210.67C67.22 214.05 67.34 219.86 63.68 222.96C61.6 224.72 61.54 226.62 61.54 228.85C61.54 297 61.79 365.15 61.45 433.29C61.29 464.82 47.09 489.03 20.45 505.92C19.7642 506.37 19.053 506.781 18.32 507.15C16.05 508.23 13.87 508.3 12.55 505.82C11.23 503.34 12.3 501.52 14.55 500.26C24.2294 494.855 32.6114 487.402 39.11 478.42C49.32 464.5 53.88 448.74 54 431.61V410.46H53.67ZM291.17 67.72C291.05 73.11 288.49 76.47 284.94 77.56C281.14 78.73 276.94 77.56 275.14 74.13C273.87 71.76 272.02 70.92 269.78 70.13C191.14 43 104.2 82.6 73.05 159.71C72.21 161.77 71.88 163.34 73.13 165.53C73.6851 166.535 74.0305 167.643 74.1453 168.785C74.2602 169.928 74.142 171.082 73.798 172.177C73.454 173.273 72.8913 174.288 72.1439 175.159C71.3966 176.031 70.4801 176.743 69.45 177.25C68.3995 177.779 67.2538 178.093 66.0801 178.173C64.9065 178.253 63.7288 178.098 62.6162 177.716C61.5036 177.334 60.4787 176.733 59.6018 175.949C58.7249 175.165 58.0137 174.213 57.51 173.15C55.44 168.56 57.45 163.69 62.04 161.34C63.5109 160.548 64.6835 159.298 65.38 157.78C86.56 107.91 122.83 74.78 175.07 59.88C207.3 50.72 239.58 51.95 271.42 62.56C273.77 63.34 275.58 63.63 277.83 61.9C279.1 60.8975 280.672 60.3523 282.29 60.3523C283.908 60.3523 285.48 60.8975 286.75 61.9C289 63.6 290.26 66.47 291.17 67.72ZM250 405.21C249.59 421.76 249.8 438.35 248.65 454.85C246.447 485.556 238.858 515.634 226.23 543.71C210.251 579.81 186.588 611.989 156.89 638C156.27 638.54 155.62 639 155.01 639.59C153.01 641.43 150.66 641.92 148.84 639.72C147.02 637.52 148 635.47 149.93 633.55C159.93 623.55 170.61 613.96 179.77 603.17C210.41 567.06 229.6 525.43 237.85 478.78C240.666 462.363 242.004 445.726 241.85 429.07C241.78 407.92 241.85 386.77 241.91 365.62C241.91 364.36 241.76 362.62 242.47 361.95C243.47 360.95 245.59 359.84 246.52 360.29C247.275 360.696 247.931 361.267 248.437 361.959C248.944 362.651 249.29 363.447 249.45 364.29C249.77 370.29 249.59 376.29 249.59 382.29V405.2L250 405.21ZM0 315.57V218.65C0.0255756 195.635 3.69431 172.768 10.87 150.9C11.58 148.7 11.87 146.9 10.63 144.67C8.28 140.46 10.4 134.98 14.63 133.04C16.7389 132.1 19.1284 132.007 21.3042 132.779C23.48 133.552 25.2757 135.131 26.32 137.19C28.32 141.52 26.57 147.03 22.09 148.72C19.53 149.72 18.82 151.36 18.14 153.52C12.43 171.59 8.75 190 8.2 209C8 215.57 7.75 222.14 7.75 228.7V419.37C7.75 424.51 6.95 425.92 4.04 425.96C1.13 426 0.04 424.24 0.04 419.15L0 315.57ZM383.69 267.17V322.86C383.69 324.93 383.98 326.49 385.79 328C386.688 328.764 387.417 329.707 387.929 330.769C388.442 331.831 388.727 332.989 388.767 334.167C388.806 335.346 388.599 336.52 388.159 337.613C387.719 338.707 387.055 339.697 386.21 340.52C384.537 342.102 382.328 342.995 380.025 343.019C377.723 343.043 375.496 342.197 373.79 340.65C372.937 339.834 372.263 338.85 371.81 337.76C371.356 336.67 371.134 335.498 371.157 334.317C371.179 333.137 371.446 331.974 371.941 330.903C372.435 329.831 373.147 328.873 374.03 328.09C375.81 326.56 376.11 325 376.11 322.93C376.11 287.22 376.52 251.49 375.96 215.78C375.35 176.72 361.52 142.54 335.39 113.42C333.27 111.06 331.03 108.81 328.79 106.57C326.24 104.01 323.89 101.7 319.52 102.1C315.15 102.5 312.31 98.26 312.42 93.38C312.368 91.3071 313.133 89.2968 314.548 87.7819C315.964 86.2669 317.918 85.3685 319.99 85.28C325.12 84.98 329.45 87.76 329.28 92.16C329.14 95.94 331.05 97.87 333.35 100.1C360.35 126.22 376.7 157.9 382.06 195.02C383.46 204.73 383.48 214.68 383.65 224.52C383.88 238.73 383.69 253 383.69 267.17Z" fill="#1EAEA3"/>
<path d="M222.74 403.84C222.74 414.84 222.96 425.93 222.74 436.98C221.36 497.2 201.27 550.26 161.49 595.7C151.103 607.551 139.529 618.308 126.95 627.8C125.472 628.764 123.703 629.182 121.95 628.98C121.07 628.88 119.64 626.84 119.8 625.9C120.178 624.251 121.063 622.761 122.33 621.64C131.98 612.72 142.33 604.5 151.33 594.98C181.83 562.75 201.25 524.59 210.23 481.16C213.693 463.657 215.328 445.841 215.11 428C215.06 407.79 215.11 387.58 215.11 367.36C215.11 366.42 215.16 365.48 215.11 364.54C214.96 361.87 216.11 360.06 218.83 360.02C221.77 360.02 222.83 361.94 222.83 364.7V403.84H222.74ZM249.66 261V305.41C249.66 308.18 248.74 310.17 245.79 310.15C242.84 310.13 241.85 308.07 242 305.34V302.87C242 274.87 242.07 246.95 242 218.99C242.016 215.186 241.094 211.437 239.316 208.074C237.537 204.711 234.957 201.839 231.804 199.711C228.651 197.583 225.021 196.265 221.237 195.874C217.454 195.483 213.632 196.032 210.11 197.47C205.853 199.217 202.221 202.205 199.687 206.045C197.152 209.885 195.833 214.399 195.9 219V303.24C195.9 308.24 194.78 310.19 191.9 310.18C189.02 310.17 187.9 308.3 187.9 303.23V220.05C187.9 204.39 197.11 192.4 211.71 188.78C216.2 187.691 220.878 187.63 225.395 188.602C229.912 189.575 234.151 191.555 237.795 194.395C241.44 197.236 244.395 200.863 246.441 205.005C248.487 209.148 249.57 213.7 249.61 218.32C249.69 232.53 249.66 246.75 249.66 261ZM379.79 371.69C381.555 371.63 383.296 372.113 384.777 373.076C386.257 374.038 387.406 375.432 388.068 377.07C388.73 378.707 388.872 380.509 388.475 382.229C388.078 383.95 387.162 385.508 385.85 386.69C384.03 388.14 383.65 389.69 383.66 391.78C383.72 406.35 383.66 420.92 383.66 435.49C383.61 497.49 369.66 556.3 342.57 612.05C341.4 614.45 339.9 616.36 336.84 615.16C334.33 614.16 333.84 611.89 335.48 608.62C352.057 575.039 363.748 539.26 370.2 502.37C373.84 481.791 375.78 460.947 376 440.05C376.16 423.96 376 407.86 376.06 391.76C376.06 389.7 375.78 388.16 373.99 386.62C371.11 384.13 370.38 380.7 371.83 377C372.433 375.392 373.525 374.015 374.954 373.062C376.382 372.109 378.074 371.629 379.79 371.69ZM275.93 449.33C273.895 490.563 263.228 530.909 244.62 567.76C229.851 597.086 210.349 623.777 186.9 646.76C184.38 649.24 181.81 649.57 180.21 647.57C178.21 645.06 179.42 643.08 181.38 641.15C193.803 628.978 205.111 615.719 215.17 601.53C240.78 565.21 257.6 525.22 264.56 481.3C266.56 468.82 267.18 456.13 268.61 443.56C268.8 441.91 269.61 439.76 270.88 438.93C273.35 437.31 276.31 439.49 276.33 442.7C276.34 444.88 276.07 447.11 275.93 449.33ZM93.6299 372.45C92.6299 374.36 92.1199 376.82 90.6299 378.05C88.4199 379.85 88.2999 381.83 88.2999 384.22C88.2999 403.6 88.9799 423.03 87.8999 442.35C86.1999 472.19 73.4499 497.23 51.0999 517C44.5599 522.79 36.8799 527.31 29.4999 532.06C28.6066 532.492 27.6272 532.717 26.6349 532.717C25.6426 532.717 24.6632 532.492 23.7699 532.06C21.2999 530.62 22.3299 527.17 25.5499 525.44C35.3366 520.283 44.2193 513.569 51.8499 505.56C70.2799 486.05 80.0899 462.89 80.5699 436.04C80.8799 418.66 80.5699 401.27 80.6499 383.88C80.6499 381.57 80.3399 379.8 78.3199 378.11C75.2499 375.55 74.9399 370.91 76.9699 367.49C77.9422 365.867 79.4167 364.604 81.1704 363.893C82.9241 363.182 84.8617 363.062 86.6899 363.55C90.7199 364.68 93.0799 367.86 93.6299 372.45Z" fill="#1EAEA3"/>
<path d="M161.26 219.82C161.26 190.32 180.26 166.99 209.58 161.96C217.055 160.624 224.722 160.802 232.127 162.484C239.532 164.165 246.524 167.316 252.689 171.749C258.854 176.182 264.066 181.808 268.017 188.292C271.968 194.777 274.577 201.989 275.69 209.5C276.55 215.38 276.24 221.43 276.43 227.41C276.5 229.82 275.24 231.17 272.85 231.27C270.26 231.39 268.94 229.94 268.85 227.44C268.6 221.94 268.85 216.37 268.12 210.94C264.97 188.33 245.75 170.94 222.99 169.07C210.29 168.074 197.688 171.951 187.744 179.912C177.799 187.873 171.258 199.321 169.45 211.93C168.79 216.66 169.01 221.53 168.98 226.34C168.98 229.13 168.28 231.54 165.17 231.61C162.06 231.68 161.17 229.34 161.27 226.52C161.32 224.29 161.26 222.06 161.26 219.82ZM168.66 447.49C162.09 510.56 133.17 560.21 79.9999 595.31C79.3099 595.76 78.6099 596.2 77.8999 596.59C75.7199 597.81 73.6799 597.59 72.4399 595.36C71.1999 593.13 71.8499 591.36 73.9199 589.89C79.9199 585.65 86.2499 581.68 91.9199 577.03C128.16 547.583 150.443 509.863 158.77 463.87C160.01 456.97 160.51 449.93 161.21 442.94C161.46 440.41 162.21 438.48 165.06 438.51C168.12 438.51 169 440.58 168.9 443.27C168.85 444.68 168.74 446.09 168.66 447.49ZM195.51 402.33C195.51 415.96 195.75 429.59 195.45 443.2C195.01 463.88 190.86 483.92 184.45 503.55C183.95 505.387 183.95 507.323 184.45 509.16C185.059 511.392 184.773 513.775 183.653 515.799C182.532 517.824 180.665 519.331 178.45 520C176.293 520.673 173.959 520.471 171.95 519.438C169.941 518.406 168.418 516.625 167.71 514.48C166.09 509.84 168.29 504.7 173.09 503.54C176.21 502.79 177.02 500.98 177.85 498.44C184.909 476.508 188.381 453.579 188.13 430.54C188 409.27 187.98 388 187.93 366.73C187.93 361.8 189.15 359.8 192.05 359.91C194.74 360.02 195.89 362.04 195.89 366.69V402.3L195.51 402.33ZM159.18 538.21C161.367 538.135 163.5 538.9 165.141 540.349C166.781 541.798 167.804 543.82 168 546C168.218 548.181 167.625 550.366 166.334 552.137C165.042 553.908 163.143 555.141 161 555.6C159.297 556.019 157.78 556.985 156.68 558.35C142.053 579.13 123.999 597.272 103.29 612C102.15 612.82 101 614 99.7399 614.18C98.2299 614.36 95.7999 614.07 95.2399 613.12C94.5199 611.88 94.8099 609.58 95.4899 608.12C96.0499 606.91 97.8099 606.25 99.0499 605.36C118.594 591.444 135.665 574.347 149.55 554.78C150.87 552.94 151.69 551.38 151.01 548.78C150.661 547.53 150.608 546.216 150.857 544.943C151.106 543.669 151.648 542.471 152.442 541.444C153.236 540.418 154.258 539.591 155.428 539.029C156.598 538.468 157.882 538.187 159.18 538.21ZM90.5399 496.25C92.7368 496.13 94.8921 496.883 96.5352 498.347C98.1784 499.81 99.1758 501.864 99.3099 504.06C99.5194 506.3 98.8482 508.533 97.4387 510.286C96.0292 512.039 93.9922 513.174 91.7599 513.45C90.3603 513.756 89.1096 514.537 88.2199 515.66C76.7443 531.033 62.2305 543.882 45.5799 553.41C44.3266 554.25 42.9853 554.951 41.5799 555.5C39.5799 556.11 37.4999 556.11 36.4499 553.8C35.3999 551.49 36.2599 549.8 38.3599 548.48C43.3599 545.42 48.4499 542.48 53.2399 539.14C63.8619 531.574 73.2582 522.42 81.0999 512C81.7313 511.335 82.1679 510.51 82.3619 509.614C82.5559 508.718 82.4998 507.786 82.1999 506.92C80.5699 501.37 84.6999 496.29 90.5399 496.25ZM299.05 587.52C299.05 591.77 296.8 594.52 292.91 595.95C291.254 596.545 289.845 597.679 288.91 599.17C280.224 615.267 270.354 630.696 259.38 645.33C259.1 645.7 258.79 646.06 258.53 646.45C256.98 648.69 254.86 649.77 252.53 648.02C250.2 646.27 250.75 643.85 252.36 641.54C258.46 632.79 264.63 624.09 270.45 615.15C274.34 609.15 277.65 602.82 281.29 596.67C282.59 594.47 283.19 592.48 282.19 589.82C280.88 586.32 282.04 583.09 284.98 580.72C286.249 579.657 287.802 578.991 289.447 578.804C291.092 578.618 292.755 578.919 294.23 579.67C297.57 581.16 299.11 583.88 299.05 587.52Z" fill="#1EAEA3"/>
<path d="M215.09 264.16V223.32C215.09 220.5 215.64 218.12 218.84 218.16C222.04 218.2 222.79 220.46 222.79 223.3C222.75 250.527 222.75 277.757 222.79 304.99C222.79 307.77 222.03 310.07 218.86 310.12C215.51 310.17 215.1 307.76 215.11 305C215.12 291.39 215.09 277.77 215.09 264.16Z" fill="#1EAEA3"/>
</svg>
