<svg width="156" height="149" viewBox="0 0 156 149" fill="none" xmlns="http://www.w3.org/2000/svg">
<g clip-path="url(#clip0_110_21)">
<path d="M123.47 106.33C123.47 106.33 123.47 106.37 123.47 106.39C123.48 106.39 123.49 106.4 123.5 106.41L123.47 106.34V106.33Z" fill="#55C3BF"/>
<path d="M135.75 140.3C135.75 140.3 135.73 140.34 135.72 140.37L135.75 140.3Z" fill="#55C3BF"/>
<path d="M121.63 103.72C121.63 103.72 121.63 103.72 121.63 103.73C121.63 103.73 121.63 103.73 121.64 103.73V103.71L121.63 103.72Z" fill="#55C3BF"/>
<path d="M122.82 105.06C122.82 105.06 122.82 105.09 122.82 105.11C122.84 105.11 122.85 105.11 122.87 105.12L122.83 105.06H122.82Z" fill="#55C3BF"/>
<path d="M122.2 104.4C122.2 104.4 122.2 104.43 122.2 104.44C122.21 104.44 122.23 104.44 122.24 104.44L122.19 104.39L122.2 104.4Z" fill="#55C3BF"/>
<path d="M131.83 127.62C131.83 127.62 131.84 127.65 131.85 127.66C131.85 127.66 131.86 127.66 131.87 127.66L131.83 127.61V127.62Z" fill="#55C3BF"/>
<path d="M128.05 116.61C128.05 116.61 128.05 116.63 128.05 116.64C128.06 116.64 128.07 116.65 128.08 116.66L128.06 116.61H128.05Z" fill="#55C3BF"/>
<path d="M120.97 102.43C120.97 102.43 120.97 102.44 120.97 102.45C120.97 102.45 120.98 102.46 120.99 102.47L120.98 102.43H120.97Z" fill="#55C3BF"/>
<path d="M132.45 130.22C132.45 130.22 132.45 130.23 132.45 130.24C132.45 130.24 132.47 130.26 132.48 130.26L132.44 130.22H132.45Z" fill="#55C3BF"/>
<path d="M134.46 134.68C134.46 134.68 134.46 134.7 134.46 134.71C134.47 134.71 134.49 134.71 134.5 134.72L134.46 134.68Z" fill="#55C3BF"/>
<path d="M129.93 122.44C129.93 122.44 129.93 122.45 129.93 122.46C129.94 122.46 129.95 122.47 129.96 122.48L129.93 122.44Z" fill="#55C3BF"/>
<path d="M131.21 125.67C131.21 125.67 131.21 125.68 131.21 125.69C131.22 125.69 131.23 125.71 131.24 125.71L131.21 125.67Z" fill="#55C3BF"/>
<path d="M124.82 108.89C124.82 108.89 124.82 108.9 124.82 108.91C124.82 108.91 124.82 108.91 124.83 108.91V108.88L124.82 108.89Z" fill="#55C3BF"/>
<path d="M127.36 71.3C127.36 71.3 127.35 71.3 127.34 71.3C127.34 71.3 127.34 71.31 127.34 71.32L127.36 71.3Z" fill="#55C3BF"/>
<path d="M123.45 73.8199C123.45 73.8199 123.43 73.8199 123.42 73.8199C123.42 73.8199 123.42 73.8399 123.42 73.8499L123.45 73.8199Z" fill="#55C3BF"/>
<path d="M153.17 55.87C153.17 55.87 153.16 55.87 153.15 55.87C153.15 55.89 153.15 55.9 153.15 55.92L153.17 55.87Z" fill="#55C3BF"/>
<path d="M155.15 52.72L155.14 52.73V52.74L155.15 52.72Z" fill="#55C3BF"/>
<path d="M117.72 97.93C117.72 97.93 117.72 97.94 117.72 97.95C117.72 97.95 117.73 97.95 117.74 97.95L117.72 97.92V97.93Z" fill="#55C3BF"/>
<path d="M153.8 55.1999C153.8 55.1999 153.77 55.1999 153.76 55.1999C153.76 55.2099 153.76 55.2299 153.75 55.2399L153.8 55.1899V55.1999Z" fill="#55C3BF"/>
<path d="M118.32 77.0699C118.32 77.0699 118.3 77.0699 118.29 77.0699C118.29 77.0799 118.29 77.0899 118.28 77.1099L118.32 77.0699Z" fill="#55C3BF"/>
<path d="M115.19 94.6899L115.2 94.6999L115.19 94.6899Z" fill="#55C3BF"/>
<path d="M115.73 95.4C115.73 95.4 115.73 95.42 115.73 95.43C115.74 95.43 115.76 95.43 115.77 95.43L115.73 95.39V95.4Z" fill="#55C3BF"/>
<path d="M117.05 77.75C117.05 77.75 117.04 77.75 117.03 77.75C117.03 77.75 117.03 77.75 117.03 77.76L117.05 77.74V77.75Z" fill="#55C3BF"/>
<path d="M114.5 79.7C114.5 79.7 114.47 79.7 114.45 79.7C114.45 79.71 114.45 79.72 114.44 79.74L114.5 79.7Z" fill="#55C3BF"/>
<path d="M113.88 92.76C113.88 92.76 113.88 92.76 113.88 92.77C113.88 92.78 113.89 92.79 113.9 92.8L113.88 92.76Z" fill="#55C3BF"/>
<path d="M64.3901 16.12C64.3901 16.12 64.4001 16.11 64.4101 16.1V16.08L64.3901 16.12Z" fill="#55C3BF"/>
<path d="M68.1899 8.32005L68.1999 8.31005V8.30005L68.1899 8.32005Z" fill="#55C3BF"/>
<path d="M67.6802 9.11005C67.6802 9.11005 67.7102 9.10005 67.7302 9.09005C67.7302 9.08005 67.7302 9.07005 67.7302 9.05005L67.6802 9.10005V9.11005Z" fill="#55C3BF"/>
<path d="M63.6802 17.34L63.6902 17.33H63.6802V17.34Z" fill="#55C3BF"/>
<path d="M62.5 20.03C62.5 20.03 62.52 20.01 62.53 19.99C62.53 19.98 62.53 19.97 62.53 19.96L62.5 20.03Z" fill="#55C3BF"/>
<path d="M74.0198 0.659995C74.0198 0.659995 74.0398 0.659995 74.0498 0.659995C74.0498 0.649995 74.0498 0.629995 74.0498 0.619995L74.0098 0.669995L74.0198 0.659995Z" fill="#55C3BF"/>
<path d="M82.8101 4.51001C82.8101 4.51001 82.8101 4.56001 82.8101 4.59001C82.8301 4.59001 82.8401 4.59001 82.8601 4.59001L82.8101 4.51001Z" fill="#55C3BF"/>
<path d="M56.7302 32.3C56.7302 32.3 56.7602 32.29 56.7702 32.28C56.7702 32.27 56.7702 32.26 56.7702 32.24L56.7202 32.29L56.7302 32.3Z" fill="#55C3BF"/>
<path d="M57.9102 30.27C57.9102 30.27 57.9102 30.25 57.9202 30.24V30.27H57.9102Z" fill="#55C3BF"/>
<path d="M60.5098 24.5C60.5098 24.5 60.5298 24.4899 60.5398 24.4799C60.5398 24.4799 60.5398 24.46 60.5398 24.45L60.5098 24.5Z" fill="#55C3BF"/>
<path d="M59.9199 25.84C59.9199 25.84 59.9399 25.82 59.9499 25.81C59.9499 25.8 59.9499 25.78 59.9499 25.77L59.9199 25.84Z" fill="#55C3BF"/>
<path d="M61.7998 21.92C61.7998 21.92 61.8198 21.91 61.8298 21.9C61.8298 21.9 61.8298 21.9 61.8298 21.89L61.7998 21.92Z" fill="#55C3BF"/>
<path d="M65.0801 14.2199C65.0801 14.2199 65.1001 14.2199 65.1101 14.2099V14.1899L65.0801 14.2299V14.2199Z" fill="#55C3BF"/>
<path d="M154.4 46.4301C154.4 46.4301 154.4 46.4601 154.41 46.4701C154.43 46.4701 154.45 46.4701 154.47 46.4701L154.4 46.4301Z" fill="#55C3BF"/>
<path d="M155.07 47.01C155.07 47.01 155.07 47.06 155.07 47.08C155.08 47.08 155.1 47.09 155.11 47.1L155.07 47.01Z" fill="#55C3BF"/>
<path d="M94.48 50.25C94.48 50.25 94.48 50.26 94.48 50.27C94.48 50.27 94.5 50.29 94.5 50.3L94.48 50.25Z" fill="#55C3BF"/>
<path d="M93.8701 47.65C93.8701 47.65 93.8701 47.66 93.8701 47.67C93.8701 47.67 93.8801 47.67 93.8901 47.68L93.8701 47.65Z" fill="#55C3BF"/>
<path d="M155.76 49.84C155.1 49.03 155.04 48.07 155.08 47.09C154.78 46.98 154.52 46.81 154.42 46.48C153.08 46.44 151.72 46.55 150.52 45.77C150.21 45.77 149.89 45.77 149.58 45.77C149.1 46.43 148.59 46.46 148.06 45.82C147.85 45.93 147.65 45.91 147.47 45.74C146.64 46.2 145.79 45.67 144.96 45.79L144.97 45.78C143.37 46.22 140.07 46.2 138.35 45.75L138.39 45.81C134.41 46.13 130.42 46.45 126.44 46.74C126.28 46.75 126.1 46.53 125.93 46.42L125.75 46.54L125.58 46.41C125.16 46.91 124.73 46.44 124.31 46.41L124.33 46.4C121.21 47.62 118 48.17 114.65 47.71C113.93 48.53 113.12 48.94 112.05 48.33L112.07 48.31C109.96 49.11 107.85 49.88 105.54 49.6L105.34 49.73L105.13 49.61C102.11 51.27 98.81 51.55 95.46 51.54C94.64 51.54 94.45 50.95 94.49 50.25C93.84 49.49 93.95 48.55 93.88 47.65C93.14 47.15 93.08 46.44 93.29 45.65L93.13 45.49L93.24 45.29C92.68 44.43 92.56 43.47 92.62 42.48C91.85 42.06 91.9 41.31 91.87 40.6C91.23 39.85 91.14 38.96 91.22 38.03C90.4 37.52 90.82 36.7 90.75 36H90.74C89.61 34.92 90.29 33.45 89.91 32.21L89.97 32.28C89.28 31.38 88.68 30.47 89.35 29.29V29.2C89 28.99 88.86 28.68 88.89 28.27C88.81 28.07 88.73 27.87 88.65 27.67C88.2 26.86 88.16 25.96 88.12 25.07C87.4 24.58 87.5 23.83 87.51 23.1L87.35 22.91L87.44 22.68C86.72 22.1 86.69 21.34 86.85 20.52L86.69 20.36L86.79 20.15C86.32 19.73 86.18 19.2 86.28 18.6C86.22 18.4 86.16 18.2 86.11 18C85.29 17.03 85.74 15.85 85.55 14.77C84.92 14.26 84.94 13.53 84.89 12.82L84.91 12.84C84.53 11.75 84.16 10.67 83.78 9.57999C83.76 9.35999 83.74 9.13999 83.72 8.91999C83.71 8.48999 83.7 8.05999 83.69 7.62999C83.17 7.30999 83.43 6.91999 83.58 6.53999C82.87 6.04999 82.8 5.32999 82.82 4.57999C82.65 4.57999 82.51 4.51999 82.39 4.39999C82.45 3.98999 82.52 3.57999 82.58 3.16999C82.3 2.93999 82.02 2.69999 81.74 2.46999C81.74 2.18999 81.74 1.92999 81.74 1.65999C81.56 1.48999 81.39 1.32999 81.21 1.15999L81.11 1.06999C80.89 1.09999 80.67 1.12999 80.45 1.15999C80.4 1.63999 80.5 1.96999 80.73 2.16999C80.5 1.95999 80.4 1.63999 80.45 1.15999C80.23 0.94999 80.01 0.73999 79.79 0.52999C79.57 0.50999 79.36 0.49999 79.14 0.47999C77.99 0.76999 76.99 -0.10001 75.86 0.0499902L75.62 -0.0100098C75.25 0.53999 74.63 0.51999 74.08 0.64999C74.03 1.01999 73.88 1.29999 73.43 1.27999C72.97 1.63999 72.5 2.00999 72.04 2.36999L71.99 2.44999C71.84 3.10999 71.37 3.47999 70.82 3.78999C70.79 4.27999 70.68 4.70999 70.14 4.87999L70.07 5.11999L69.82 5.14999C69.54 5.77999 69.67 6.62999 68.88 6.99999L68.87 7.00999C68.87 7.54999 68.86 8.06999 68.24 8.29999C68.24 8.65999 68.15 8.95999 67.78 9.07999C67.84 10.65 66.75 11.52 65.72 12.43L65.85 12.57L65.76 12.74C66.27 13.54 65.83 13.93 65.14 14.2C65.05 14.89 65.1 15.62 64.44 16.09C64.45 16.65 64.31 17.12 63.71 17.32C63.84 18.43 63.1 19.17 62.55 19.98C62.4 20.65 62.57 21.43 61.85 21.89C61.78 22.93 61.4 23.81 60.55 24.46C60.56 25 60.42 25.46 59.97 25.8C60.1 26.98 59.03 27.54 58.58 28.43C58.69 28.65 58.64 28.81 58.42 28.92C58.46 29.44 58.43 29.94 57.93 30.27C57.61 30.97 57.67 31.9 56.79 32.28C56.59 33 56.35 33.72 56.47 34.49C56.29 34.54 56.11 34.59 55.93 34.66L55.91 34.71C55.94 35.12 55.72 35.32 55.35 35.4C55.41 37.21 54.45 38.57 53.4 39.9C53.37 40.43 53.3 40.93 52.74 41.18C52.76 41.57 52.58 41.81 52.23 41.92C52.32 43.03 51.92 43.89 50.98 44.49C51.08 45.44 50.88 46.29 50.19 46.99C50.2 47.61 49.9 48.1 49.56 48.58C49.58 48.86 49.44 48.98 49.18 48.98C48.66 51.12 47.87 53.13 46.4 54.82L46.44 54.76C46.23 55.71 46.48 56.78 45.71 57.59L45.79 57.78L45.64 57.91C45.72 58.37 45.47 58.63 45.08 58.8C45.21 59.18 45.2 59.54 44.91 59.85C44.35 61.17 44.69 62.9 43.12 63.76C43.03 64.12 42.92 64.45 42.45 64.39C41.55 65.25 40.39 65.03 39.31 65.16C38.83 65.98 37.56 65.23 37.17 66.23C35.6 65.84 34.39 67.53 32.8 67.01C32.11 68.05 31.18 67.95 30.19 67.55L30.07 67.74L29.85 67.68C29.29 68.51 28.63 68.97 27.65 68.32C27.07 68.74 26.38 68.8 25.7 68.87L25.66 68.89C25.24 69.68 24.59 69.83 23.79 69.59C23.32 70.43 22.65 70.66 21.77 70.24L21.59 70.37L21.4 70.26C21.27 70.66 21.09 71.01 20.56 70.91C20 71.32 19.38 71.57 18.68 71.61C18.26 72.62 17.4 72.13 16.69 72.18C16.42 72.79 15.87 72.73 15.35 72.73L15.32 72.75C14.93 73.5 14.17 73.38 13.53 73.53C13.41 73.91 13.16 74.04 12.78 73.95C12.63 74.15 12.44 74.2 12.22 74.09C11.87 74.56 11.45 74.84 10.83 74.7L10.68 74.87L10.47 74.78C10.32 75.2 10.05 75.44 9.57004 75.36H9.54004C9.18004 75.71 8.83004 76.1 8.24004 75.97L8.08004 76.14L7.86004 76.06C7.71004 76.47 7.39004 76.62 6.98004 76.62L6.95004 76.64C6.87004 76.96 6.70004 77.16 6.33004 77.11C6.24004 77.33 6.08004 77.41 5.85004 77.35C5.72004 77.72 5.48004 77.95 5.05004 77.93L5.02004 77.95C4.76004 78.44 4.35004 78.66 3.81004 78.65C3.70004 79.01 3.43004 79.11 3.08004 79.11L2.97004 79.19C2.91004 79.38 2.87004 79.56 2.85004 79.76C3.50004 79.67 4.13004 79.51 4.74004 79.31C4.13004 79.51 3.50004 79.66 2.85004 79.76C2.06004 80.43 1.28004 81.11 0.490044 81.78C-0.239956 83.03 -0.219956 84.06 1.30004 84.72C1.74004 84.91 2.11004 85.28 2.52004 85.56C4.19004 85.69 5.75004 86.5 7.45004 86.4C8.57004 87.14 9.89004 86.99 11.09 87C18.28 87.06 25.47 86.96 32.66 86.99C33.98 86.99 35.4 86.71 36.62 87.55H36.64C39.67 87.64 42.73 87.18 45.71 88.13H45.72C46.14 88.13 46.64 88.22 46.56 88.71C46.41 89.68 46.43 90.72 45.69 91.51C45.58 92.71 45.65 93.97 44.42 94.72C44.37 95.62 44.65 96.61 43.73 97.27C43.73 97.8 43.77 98.35 43.18 98.64C43 99.81 42.6 100.89 41.84 101.81C41.94 102.45 41.78 102.98 41.21 103.35C41.41 103.7 41.42 104.03 41.12 104.34C41.24 104.92 41.14 105.41 40.61 105.74C40.54 107.34 40.51 108.95 39.26 110.2C38.86 113.85 37.63 117.3 36.51 120.75C35.92 122.59 36.32 124.79 34.72 126.3C34.64 127 34.85 127.78 34.19 128.32C33.77 130.95 33.35 133.59 32.16 136.02L32.19 135.98C33.18 137.64 32.82 139.45 32.73 141.21C32.69 142.05 32.61 142.9 32.52 143.72C32.3 145.79 33.16 147.07 34.84 148.01L34.81 147.97C35.17 148 35.53 148.03 35.88 148.07C36.13 147.43 36.7 147.53 37.21 147.5L37.23 147.49C37.23 147.32 37.26 147.15 37.31 146.99C37.95 146.79 38.31 146 39.11 146.15C39.19 145.78 39.39 145.55 39.8 145.56C40.2 145.11 40.42 144.47 41.07 144.26C41.14 143.93 41.26 143.64 41.6 143.51C41.68 143.16 41.92 142.97 42.26 142.88C42.36 142.52 42.6 142.32 42.98 142.3C43.09 141.97 43.3 141.76 43.64 141.68C43.64 141.47 43.64 141.27 43.67 141.07C43.84 140.99 44.03 140.96 44.21 140.96C44.26 140.11 44.74 139.73 45.57 139.72C45.64 138.92 46.2 138.93 46.79 138.98C47.48 137.53 48.53 136.44 50.05 135.84C50.11 135.44 50.4 135.32 50.75 135.27L50.77 135.25C50.81 134.89 50.99 134.65 51.35 134.56C51.45 133.81 51.86 133.37 52.61 133.25C52.65 132.88 52.84 132.63 53.21 132.53C53.86 131.03 55.02 130.07 56.45 129.37C56.65 127.88 57.7 127.19 58.96 126.7C59.11 125.98 59.37 125.37 60.27 125.42C60.57 124.44 60.98 123.56 62.19 123.48C62.48 122.34 63.41 121.74 64.21 121.02C64.24 120.63 64.43 120.37 64.81 120.26L64.78 120.3C65.75 119.7 65.31 117.96 66.79 117.76C66.86 116.89 67.41 116.33 68.05 115.84C68.08 115.43 68.31 115.21 68.71 115.15C69.56 113.87 70.43 112.6 71.25 111.3C71.56 110.8 71.99 110.63 72.52 110.59C72.82 109.8 72.58 108.83 73.3 108.18C73.73 108.17 74.15 108.16 74.58 108.15C74.64 107.81 74.82 107.56 75.17 107.47C75.31 107.02 75.26 106.45 75.91 106.33L76.08 106.15L76.32 106.18C76.63 105.81 76.94 105.44 77.24 105.07C77.03 104.71 76.79 104.7 76.54 104.81C76.79 104.71 77.03 104.71 77.24 105.07C77.76 105.09 78.26 105.15 78.66 105.53L78.9 105.41L79.12 105.57C80.54 105.14 81.29 106.38 82.34 106.88L82.38 106.9C82.74 106.88 83.03 106.98 83.14 107.36L83.06 107.54L83.16 107.37C83.66 107.45 84.14 107.56 84.24 108.18L84.29 108.25C85.36 108.86 86.73 109.12 87.04 110.61C87.39 110.68 87.61 110.87 87.69 111.23C88.61 111.31 88.99 112.06 89.48 112.67C90.36 112.56 90.75 113.06 90.91 113.83C91.54 114.07 92.01 114.46 92.18 115.14C93.5 115.94 94.9 116.62 95.93 117.82C96.35 117.8 96.55 118.04 96.63 118.41C97.85 118.56 98.37 119.66 99.21 120.32C100.91 120.91 101.88 122.35 103.04 123.58C104.56 123.35 104.91 124.68 105.63 125.52C106.06 125.55 106.23 125.81 106.25 126.21C106.81 126.76 107.93 126.47 108.17 127.5C108.58 127.71 109.12 127.68 109.33 128.2L109.41 128.26C109.99 128.5 110.53 128.78 110.76 129.43C111.35 129.64 111.49 130.16 111.66 130.68C112.06 130.71 112.16 130.99 112.18 131.33C112.71 131.29 113.23 131.3 113.37 131.98C114.16 132.48 115.12 132.83 115.23 133.98L115.25 134C115.59 134.04 115.89 134.15 115.98 134.52C116.94 134.33 117.38 135.56 118.33 135.38L118.35 135.39C118.62 135.76 118.9 136.12 119.17 136.49C119.59 136.53 119.89 136.73 120.05 137.13L120.24 137.04L120.39 137.19C121.19 137.16 121.5 137.75 121.84 138.32C122.35 138.38 122.86 138.44 123.11 138.99C123.44 139.09 123.76 139.2 124.09 139.3L124.15 139.35C124.42 139.9 124.96 139.91 125.46 140.01C125.74 141.14 127.14 140.7 127.62 141.54L127.64 141.56C128.34 142.3 129.5 141.41 130.17 142.25C131 142.3 131.82 142.35 132.65 142.39C134.17 142.46 135.2 141.79 135.74 140.38C135.2 138.52 134.42 136.71 134.48 134.72C134.12 134.63 133.92 134.42 134 134C133.8 133.88 133.75 133.72 133.87 133.52C133.33 133.18 133.4 132.59 133.29 132.07C132.49 131.7 132.81 130.84 132.48 130.26C131.62 129.56 132.25 128.49 131.87 127.68C130.89 127.28 131.41 126.38 131.23 125.71C130.1 124.91 130.1 123.66 129.96 122.47C129.13 121.98 129.5 121.17 129.45 120.46L129.27 120.33L129.33 120.12C128.93 119.92 128.75 119.61 128.8 119.17V119.15C128.32 118.39 127.73 117.65 128.07 116.65C127.77 116.52 127.64 116.29 127.65 115.96C127.36 114.98 127.06 114 126.77 113.02C126.38 112.82 126.25 112.49 126.25 112.08L126.22 112.04C125.43 111.61 125.43 110.89 125.55 110.14L125.39 109.99L125.48 109.79C125.04 109.66 124.83 109.37 124.86 108.92C124.21 108.67 124.13 108.17 124.28 107.57L124.12 107.43L124.2 107.23C123.78 107.1 123.47 106.89 123.52 106.4C122.95 106.15 122.83 105.67 122.87 105.12C122.51 105.05 122.29 104.83 122.26 104.45C121.83 104.41 121.64 104.17 121.68 103.74C121.15 103.47 120.88 103.07 121.02 102.46C120.01 101.54 118.27 101.15 118.62 99.21L118.38 99.07L118.41 98.79C118.01 98.65 117.78 98.39 117.78 97.96C116.83 97.34 115.61 96.93 115.78 95.43C115.39 95.35 115.19 95.13 115.25 94.7C115.07 94.47 114.89 94.25 114.71 94.02L114.65 93.97C113.93 93.86 113.76 93.42 113.93 92.78C113.77 92.55 113.61 92.32 113.44 92.08L113.35 92C112.96 92 112.84 91.75 112.81 91.42L112.73 91.34C112.5 91.17 112.26 91 112.03 90.82C112.03 90.4 112.01 89.97 112.01 89.55C111.67 89.45 111.45 89.24 111.4 88.88C111.2 88.65 110.99 88.43 110.79 88.2C110.58 88.2 110.36 88.2 110.15 88.19C109.8 86.4 108.74 84.63 110.04 82.81L109.97 82.58L110.16 82.43C110.05 81.98 110.42 81.83 110.68 81.61C110.93 81.65 111.18 81.69 111.43 81.73L111.62 81.63L111.82 81.7C112.01 81.34 112.31 81.17 112.71 81.16L112.76 81.14C112.86 80.94 112.87 80.74 112.79 80.54C112.24 80.41 111.64 80.19 111.23 80.32C111.65 80.19 112.24 80.41 112.79 80.54C112.96 80.41 113.14 80.39 113.34 80.48L113.36 80.47C113.56 79.91 113.98 79.71 114.53 79.72C114.87 78.39 116.11 78.24 117.11 77.78C117.34 77.2 117.88 77.2 118.37 77.1C118.54 76.38 119.06 76.06 119.76 75.95H119.77C120.78 74.83 121.94 73.99 123.51 73.87C123.73 72.72 124.64 72.65 125.55 72.58C125.48 72.34 125.56 72.2 125.81 72.15C126.15 71.47 126.78 71.39 127.43 71.35C127.53 70.98 127.81 70.85 128.17 70.84L128.19 70.82C130.3 69.71 132.41 68.6 134.52 67.49H134.54C135.95 66.29 137.43 65.18 139.18 64.52L139.26 64.43C140.68 63.09 142.37 62.25 144.24 61.75H144.25C144.89 61.32 145.52 60.9 146.16 60.47H146.18C146.76 59.45 148.08 60 148.78 59.23L148.79 59.22C149.29 58.16 150.18 57.73 151.31 57.7L151.28 57.45L151.5 57.34C151.78 56.51 152.44 56.15 153.22 55.94C153.2 55.51 153.45 55.33 153.84 55.27C154.1 54.34 154.52 53.48 155.22 52.79C155.36 51.83 155.05 50.78 155.83 49.95V49.89L155.76 49.84ZM47.76 62.07C47.72 62.13 47.68 62.2 47.66 62.27C47.69 62.2 47.72 62.13 47.76 62.07ZM7.84004 77.96C7.58004 78.1 7.31004 78.23 7.04004 78.36C7.31004 78.23 7.57004 78.1 7.84004 77.96ZM6.03004 78.81C5.90004 78.86 5.78004 78.91 5.65004 78.97C5.78004 78.92 5.91004 78.87 6.03004 78.81ZM28.6 84.84C28.91 84.84 29.22 84.84 29.53 84.8C29.84 84.76 30.16 84.7 30.48 84.61C30.16 84.7 29.85 84.76 29.53 84.8C29.22 84.84 28.91 84.85 28.6 84.84ZM42.67 105.56C42.62 105.43 42.58 105.32 42.56 105.21C42.58 105.32 42.62 105.44 42.67 105.56ZM43.65 103.93C43.65 103.93 43.67 103.93 43.68 103.93C43.68 103.95 43.69 103.97 43.7 103.99C43.66 104.24 43.67 104.5 43.73 104.76C43.67 104.49 43.65 104.21 43.66 103.93H43.65ZM46.1 98.68C46.04 98.76 45.96 98.81 45.85 98.82C45.97 98.8 46.05 98.75 46.1 98.68ZM47.54 92.78C47.46 92.57 47.4 92.4 47.35 92.24C47.41 92.4 47.48 92.58 47.57 92.79C47.57 92.79 47.55 92.78 47.54 92.77V92.78ZM47.28 91.55C47.28 91.55 47.3 91.49 47.32 91.46C47.3 91.49 47.29 91.52 47.28 91.55ZM47.33 91.44C47.33 91.44 47.39 91.35 47.43 91.31C47.39 91.35 47.36 91.39 47.33 91.44ZM45.85 97.53C45.85 97.53 45.79 97.61 45.78 97.65C45.79 97.61 45.82 97.57 45.85 97.53ZM43.24 102.22C43.21 102.33 43.21 102.44 43.24 102.57C43.22 102.45 43.22 102.33 43.24 102.22ZM40.37 143.12C40.64 142.87 40.91 142.64 41.2 142.42C40.91 142.64 40.63 142.88 40.37 143.12ZM76.2 104.98C76.28 104.93 76.36 104.89 76.43 104.85C76.35 104.89 76.28 104.93 76.2 104.98ZM123.59 137.85H123.6C123.6 137.85 123.6 137.85 123.59 137.85ZM126.62 138.3C126.85 138.25 127.15 138.3 127.55 138.48C127.16 138.3 126.86 138.25 126.62 138.3ZM130.15 138.32C131 138.36 131.23 137.48 131.39 136.61C131.23 137.49 131 138.36 130.15 138.32ZM131.36 135.85C131.61 136 131.74 136.15 131.7 136.3C131.74 136.14 131.61 135.99 131.36 135.85ZM114.86 100.5C114.93 100.64 114.97 100.81 115.01 100.98C114.98 100.81 114.93 100.64 114.86 100.5ZM110.72 90.14C110.65 90.05 110.59 89.95 110.54 89.84C110.59 89.94 110.65 90.04 110.72 90.14ZM110.32 89.25C110.28 89.11 110.25 88.97 110.22 88.82C110.25 88.96 110.28 89.11 110.32 89.25ZM147.78 55.06C143.47 57.61 139.09 60.02 134.81 62.61C126.54 67.63 118 72.21 110.04 77.75C109.17 78.36 108.19 78.86 107.43 79.59C105.92 81.03 105.08 82.65 105.4 84.96C105.81 87.94 106.01 90.87 108.57 92.99C109.27 93.56 108.93 94.93 110.06 95.31C110.21 96.15 110.73 96.71 111.4 97.18V97.2C111.81 98.46 112.32 99.62 113.8 99.94H113.82C113.89 100.7 114.29 101.14 115.04 101.26C114.16 102.91 115.51 103.18 116.53 103.66H116.54C116.81 103.71 117 103.82 117.07 104C116.99 103.82 116.81 103.71 116.54 103.67C116.53 104.07 116.65 104.36 117.1 104.42C117.99 106.1 118.89 107.78 119.78 109.45C120.14 110.57 121.26 111.33 121.18 112.72C121.15 113.24 121.65 113.85 122.37 113.94C122.56 114.18 122.76 114.41 122.95 114.65C122.98 115.6 122.92 116.58 123.3 117.48C126.03 123.89 127.95 130.57 130.05 137.19C129.2 137.17 128.36 137.14 127.51 137.12C125.97 136.02 124.55 134.62 122.85 133.89C120.92 133.07 119.57 131.69 118.07 130.41C113.15 126.23 108.47 121.72 103.26 117.94C98.39 114.41 93.67 110.72 89.16 106.78C87.29 105.15 85.25 104 83.17 102.85C79 100.55 75.9 101.01 72.5 104.21C69.7 106.83 67.57 110.01 65.21 113C61.85 117.25 58.79 121.69 54.55 125.24C52 127.38 50.18 130.38 47.64 132.66C44.41 135.56 41.26 138.56 38.08 141.52C37.78 141.8 37.57 142.26 37.06 142.06C36.41 141.82 36.54 141.24 36.53 140.71C36.43 136.42 37.32 132.28 38.46 128.18C38.63 128.04 38.66 127.87 38.57 127.67C39.97 125 40.16 121.97 41.04 119.15C41.66 118.84 41.26 118.42 41.17 118.03C42.27 115.26 43.34 112.49 43.78 109.52C44.36 108.55 44.43 107.48 44.37 106.38C45.85 103.93 46.82 101.28 47.57 98.54C48.1 97.83 48.34 97.02 48.27 96.14C49.75 93.94 49.89 91.29 50.71 88.87C50.08 88.87 49.45 88.87 48.94 89.17C48.96 89.21 48.97 89.25 48.99 89.29C48.94 89.15 48.88 89.01 48.83 88.87C48.81 88.88 48.79 88.89 48.77 88.91C47.5 87.12 45.73 86.9 44.03 86.98C45.82 86.89 47.67 87.14 48.84 88.87C49.47 88.87 50.1 88.87 50.73 88.87C50.92 88.29 51.21 87.73 51.29 87.14C51.6 84.68 51.03 84.18 48.16 84.3C40.47 84.16 32.83 83.02 25.12 83.25C24.58 83.27 24.06 83.2 23.64 83.63C25.29 84.13 26.92 84.8 28.61 84.85C26.92 84.8 25.29 84.14 23.64 83.64C22.19 82.88 20.74 83.53 19.29 83.64C16.3 83.08 13.28 83.24 10.26 83.21C8.98004 83.2 7.23004 83.55 6.78004 82.27C6.19004 80.59 8.22004 80.53 9.21004 79.9C12.07 78.08 15.28 76.96 18.39 75.71C26.07 72.64 34.08 70.61 42.04 68.4C43.45 68.01 45.09 68.99 46.29 67.62C47.13 67.58 47.97 67.59 48.74 67.13C49.35 66.76 50.18 66.67 50.27 65.73C50.37 64.67 49.61 64.12 48.84 63.9C48.01 63.67 47.52 63.42 47.62 62.51C47.97 62.4 48.14 62.16 48.13 61.79L48.16 61.74C49 60.34 50.18 59.09 50.01 57.27C50.1 57.07 50.19 56.88 50.28 56.68C51.07 55.47 51.57 54.13 51.98 52.76C54.31 47.68 56.62 42.6 58.97 37.52C60.5 34.21 62.09 30.92 63.62 27.61C66.43 21.55 69.19 15.46 72.04 9.41999C72.65 8.11999 73.48 6.90999 74.35 5.75999C75.02 4.86999 75.67 3.70999 77.15 4.12999C78.47 4.49999 78.69 5.76999 79.23 6.76999C80.15 8.45999 79.76 10.43 80.39 12.18C80.73 15.04 81.06 17.91 82.31 20.56C82.53 21.24 81.52 22.22 82.83 22.63C83.43 25.14 84.45 27.52 84.8 30.12C85.29 33.76 86.97 37.13 87.37 40.81C87.57 42.61 87.74 42.54 88.23 43.55C88.72 44.57 88.81 45.77 89.15 46.87C89.2 47.03 89.7 47.05 90 47.13C89.87 50.04 89.99 52.84 92.78 54.71C93.57 55.24 94.34 55.25 95.21 55.26C98.55 55.31 101.72 54.64 104.94 53.71C110.46 52.12 116.2 51.6 121.88 50.76C130.68 49.47 139.52 49.64 148.37 49.71C149.09 49.71 150.05 50.0367 151.25 50.69C150.94 52.8 149.49 54.06 147.81 55.06H147.78Z" fill="#55C3BF"/>
<path d="M114.63 47.72C114.63 47.72 114.63 47.72 114.64 47.72C114.64 47.72 114.64 47.71 114.65 47.7L114.62 47.7099L114.63 47.72Z" fill="#55C3BF"/>
<path d="M91.8599 40.59C91.8599 40.59 91.8599 40.61 91.8599 40.62C91.8699 40.64 91.8799 40.65 91.8999 40.67L91.8599 40.6V40.59Z" fill="#55C3BF"/>
<path d="M88.1099 25.0699V25.0799H88.1199L88.1099 25.0699Z" fill="#55C3BF"/>
<path d="M91.21 38.02C91.21 38.02 91.21 38.03 91.21 38.04C91.22 38.04 91.23 38.06 91.25 38.07L91.21 38.02Z" fill="#55C3BF"/>
<path d="M92.6099 42.47V42.49C92.6099 42.49 92.6099 42.49 92.6199 42.49V42.46L92.6099 42.47Z" fill="#55C3BF"/>
<path d="M96.6401 118.43C96.6401 118.43 96.6401 118.41 96.6401 118.4C96.6401 118.4 96.6301 118.4 96.6201 118.4C96.6201 118.4 96.6401 118.43 96.6501 118.43H96.6401Z" fill="#55C3BF"/>
<path d="M92.1902 115.16C92.1902 115.16 92.1902 115.15 92.1902 115.14C92.1902 115.14 92.1702 115.14 92.1602 115.12L92.1902 115.16Z" fill="#55C3BF"/>
<path d="M90.75 114L90.91 113.83L90.9 113.82L90.75 114Z" fill="#55C3BF"/>
<path d="M99.23 120.32H99.22L99.21 120.31L99.23 120.32Z" fill="#55C3BF"/>
<path d="M87.52 111.37C87.52 111.37 87.69 111.25 87.7 111.25C87.7 111.25 87.7 111.24 87.7 111.23L87.54 111.37H87.52Z" fill="#55C3BF"/>
<path d="M72.5402 110.59C72.5402 110.59 72.5202 110.59 72.5002 110.59C72.5002 110.61 72.4802 110.64 72.4702 110.66L72.5302 110.59H72.5402Z" fill="#55C3BF"/>
<path d="M87.0498 110.65C87.0498 110.65 87.0498 110.63 87.0498 110.62C87.0398 110.62 87.0298 110.62 87.0098 110.61L87.0598 110.65H87.0498Z" fill="#55C3BF"/>
<path d="M103.06 123.59C103.06 123.59 103.06 123.59 103.05 123.58C103.05 123.58 103.05 123.58 103.04 123.58C103.04 123.58 103.06 123.58 103.06 123.59Z" fill="#55C3BF"/>
<path d="M122.99 139.11L123.1 138.99C123.1 138.99 123.1 138.99 123.1 138.98C123.1 138.98 123.09 138.98 123.08 138.98L122.99 139.12V139.11Z" fill="#55C3BF"/>
<path d="M68.7099 115.15C68.7099 115.15 68.7099 115.15 68.6999 115.15C68.6999 115.15 68.6999 115.16 68.6899 115.17L68.7099 115.15Z" fill="#55C3BF"/>
<path d="M115.98 134.53C115.98 134.53 115.98 134.52 115.98 134.51C115.98 134.51 115.97 134.51 115.96 134.51L115.99 134.53H115.98Z" fill="#55C3BF"/>
<path d="M108.18 127.49L108.17 127.48L108.18 127.49Z" fill="#55C3BF"/>
<path d="M40.5598 105.75C40.5598 105.75 40.5798 105.74 40.5798 105.73C40.5798 105.71 40.5798 105.69 40.5798 105.68L40.5498 105.75H40.5598Z" fill="#55C3BF"/>
<path d="M44.2199 140.95C44.2199 140.95 44.1999 140.95 44.1899 140.95C44.1899 140.96 44.1899 140.97 44.1899 140.98L44.2299 140.94L44.2199 140.95Z" fill="#55C3BF"/>
<path d="M34.6802 126.3C34.6802 126.3 34.6802 126.3 34.6902 126.29C34.6902 126.29 34.6902 126.29 34.6902 126.28V126.31L34.6802 126.3Z" fill="#55C3BF"/>
<path d="M34.1399 128.33C34.1399 128.33 34.1599 128.31 34.1699 128.31C34.1699 128.29 34.1699 128.28 34.1699 128.26C34.1699 128.26 34.1299 128.34 34.1299 128.33H34.1399Z" fill="#55C3BF"/>
<path d="M45.5598 139.71C45.5598 139.71 45.5598 139.71 45.5498 139.71C45.5498 139.71 45.5498 139.72 45.5498 139.73L45.5698 139.71H45.5598Z" fill="#55C3BF"/>
<path d="M68.0698 115.83C68.0698 115.83 68.0598 115.84 68.0498 115.85C68.0498 115.85 68.0498 115.85 68.0498 115.86L68.0698 115.83Z" fill="#55C3BF"/>
<path d="M46.8002 138.97C46.8002 138.97 46.7802 138.97 46.7702 138.97C46.7702 138.99 46.7502 139.01 46.7402 139.03L46.8002 138.97Z" fill="#55C3BF"/>
<path d="M44.3799 94.73C44.3799 94.73 44.3999 94.72 44.3999 94.71L44.3799 94.74V94.73Z" fill="#55C3BF"/>
<path d="M43.7002 97.27H43.7102V97.26L43.7002 97.27Z" fill="#55C3BF"/>
<path d="M45.6599 91.51C45.6599 91.51 45.6599 91.5 45.6699 91.49C45.6699 91.48 45.6699 91.47 45.6699 91.46L45.6499 91.51H45.6599Z" fill="#55C3BF"/>
<path d="M43.1299 98.65C43.1299 98.65 43.1499 98.64 43.1599 98.63C43.1599 98.62 43.1599 98.61 43.1599 98.6L43.1299 98.65Z" fill="#55C3BF"/>
<path d="M39.2202 110.21C39.2202 110.21 39.2302 110.19 39.2402 110.19C39.2402 110.19 39.2402 110.18 39.2402 110.17L39.2202 110.21Z" fill="#55C3BF"/>
<path d="M41.7998 101.83C41.7998 101.83 41.8098 101.81 41.8198 101.8C41.8198 101.8 41.8198 101.79 41.8198 101.78L41.7998 101.83Z" fill="#55C3BF"/>
<path d="M58.9802 126.69C58.9802 126.69 58.9602 126.69 58.9502 126.7C58.9502 126.7 58.9502 126.72 58.9502 126.73L58.9902 126.69H58.9802Z" fill="#55C3BF"/>
<path d="M62.2902 123.61L62.2002 123.47C62.2002 123.47 62.1902 123.47 62.1802 123.47C62.1802 123.47 62.1802 123.48 62.1802 123.49L62.3002 123.6L62.2902 123.61Z" fill="#55C3BF"/>
<path d="M60.39 125.58L60.28 125.42C60.28 125.42 60.28 125.42 60.27 125.42C60.27 125.42 60.27 125.43 60.27 125.44L60.4 125.58H60.39Z" fill="#55C3BF"/>
<path d="M66.8098 117.76C66.8098 117.76 66.7898 117.76 66.7798 117.76C66.7798 117.77 66.7798 117.78 66.7798 117.8L66.8098 117.76Z" fill="#55C3BF"/>
<path d="M51.3501 134.55C51.3501 134.55 51.3401 134.55 51.3301 134.55C51.3301 134.55 51.3301 134.56 51.3301 134.57L51.3501 134.54V134.55Z" fill="#55C3BF"/>
<path d="M52.6201 133.24C52.6201 133.24 52.6101 133.24 52.6001 133.24C52.6001 133.24 52.6001 133.25 52.6001 133.26L52.6301 133.23L52.6201 133.24Z" fill="#55C3BF"/>
<path d="M56.4899 129.34C56.4899 129.34 56.4599 129.36 56.4399 129.36C56.4399 129.36 56.4399 129.37 56.4399 129.38L56.4899 129.34Z" fill="#55C3BF"/>
<path d="M53.2199 132.52H53.1999C53.1999 132.54 53.1799 132.56 53.1699 132.58L53.2199 132.51V132.52Z" fill="#55C3BF"/>
<path d="M32.75 67.02C32.75 67.02 32.76 67.01 32.77 67L32.75 67.02Z" fill="#55C3BF"/>
<path d="M18.6201 71.61C18.6201 71.61 18.6401 71.61 18.6501 71.61C18.6501 71.6 18.6501 71.59 18.6601 71.58L18.6201 71.61Z" fill="#55C3BF"/>
<path d="M20.53 70.91C20.53 70.91 20.55 70.9 20.55 70.89L20.52 70.91H20.53Z" fill="#55C3BF"/>
<path d="M16.6499 72.18C16.6499 72.18 16.6599 72.18 16.6699 72.18C16.6699 72.18 16.6699 72.18 16.6699 72.17H16.6499V72.18Z" fill="#55C3BF"/>
<path d="M27.6001 68.3301C27.6101 68.3301 27.6201 68.3201 27.6401 68.3101L27.6001 68.3301Z" fill="#55C3BF"/>
<path d="M23.7402 69.6L23.7502 69.59L23.7402 69.6Z" fill="#55C3BF"/>
<path d="M13.4802 73.54C13.4802 73.54 13.4902 73.54 13.5002 73.54C13.5002 73.54 13.5002 73.54 13.5002 73.53L13.4702 73.55L13.4802 73.54Z" fill="#55C3BF"/>
<path d="M3.76977 78.64C3.76977 78.64 3.76977 78.64 3.77977 78.64C3.77977 78.64 3.77977 78.64 3.77977 78.63H3.75977L3.76977 78.64Z" fill="#55C3BF"/>
<path d="M52.1602 41.94C52.1602 41.94 52.1902 41.93 52.2102 41.92C52.2102 41.91 52.2102 41.9 52.2102 41.88L52.1602 41.94Z" fill="#55C3BF"/>
<path d="M39.25 65.18H39.27C39.27 65.17 39.28 65.16 39.29 65.15L39.25 65.18Z" fill="#55C3BF"/>
<path d="M43.0898 63.78L43.0998 63.77L43.0898 63.78Z" fill="#55C3BF"/>
<path d="M50.9199 44.53C50.9199 44.53 50.9499 44.51 50.9599 44.5L50.9199 44.54V44.53Z" fill="#55C3BF"/>
<path d="M50.1602 47.01C50.1602 47.01 50.1602 47.01 50.1702 47C50.1702 47 50.1702 47 50.1702 46.99V47.01H50.1602Z" fill="#55C3BF"/>
<path d="M55.3101 35.41C55.3101 35.41 55.3201 35.41 55.3301 35.41C55.3301 35.41 55.3301 35.41 55.3301 35.4L55.3101 35.42V35.41Z" fill="#55C3BF"/>
<path d="M74.5898 108.15C74.5898 108.15 74.5798 108.15 74.5698 108.15C74.5698 108.15 74.5698 108.17 74.5698 108.18L74.5998 108.15H74.5898Z" fill="#55C3BF"/>
<path d="M75.2102 107.45C75.2102 107.45 75.1802 107.45 75.1702 107.46C75.1702 107.47 75.1702 107.49 75.1602 107.5L75.2202 107.44L75.2102 107.45Z" fill="#55C3BF"/>
</g>
<defs>
<clipPath id="clip0_110_21">
<rect width="155.76" height="148.07" fill="white"/>
</clipPath>
</defs>
</svg>
